<svg width="1312" height="408" viewBox="0 0 1312 408" fill="none" xmlns="http://www.w3.org/2000/svg">
<g clip-path="url(#clip0_1643_21083)">
<path d="M940.393 55.8055C1058.6 -16.7698 1150.65 10.9359 1181.9 33.8607C1296.35 93.0367 1357.02 317.532 1262.55 377.514C1168.09 437.497 1034.31 381.871 952.727 302.284C829.722 169.215 886.101 100.892 940.393 55.8055Z" fill="#E9EEFF"/>
<path d="M23.3869 321.868C-21.9818 190.791 24.9279 106.885 54.0539 81.3159C136.526 -17.6785 368.823 -28.4961 407.016 76.6869C445.208 181.87 362.034 300.502 266.723 362.993C110.253 454.397 55.7001 384.607 23.3869 321.868Z" fill="#E8FFFC"/>
<ellipse cx="211.5" cy="349" rx="39.5" ry="9" fill="#A3EADF"/>
<path d="M838.318 104.796C868.778 240.117 812.8 318.266 781.003 340.425C688.001 429.6 455.947 414.432 429.728 305.644C403.51 196.857 499.401 88.2452 601.089 36.7788C766.781 -36.5972 813.206 38.8436 838.318 104.796Z" fill="#FFF3F6"/>
<ellipse cx="600.5" cy="331" rx="39.5" ry="9" fill="#FFCFDB"/>
<path d="M1273.08 288.695L1271.56 306.873L1267.78 337.17C1267.78 337.17 1251.11 343.987 1235.21 335.655L1229.91 290.967V287.938V284.151L1223.85 269.002L1220.06 255.369L1215.52 246.28V237.191L1220.06 235.676L1227.63 245.522L1238.62 259.535V254.233L1235.59 236.812L1234.83 224.693L1237.1 220.906L1242.4 223.179L1246.95 232.268L1248.46 245.901L1255.28 263.322L1259.07 255.747L1268.16 229.238L1270.43 221.664H1273.46L1274.97 223.936L1277.25 230.753V246.658L1271.94 265.594L1271.19 286.802V289.074L1273.08 288.695Z" fill="#E9EEFF"/>
<path d="M1272.07 289.036C1272.1 289.135 1272.13 289.233 1272.15 289.339C1272.19 289.513 1272.16 289.369 1272.14 289.256C1272.15 289.339 1272.16 289.43 1272.16 289.513C1272.19 289.9 1272.2 290.286 1272.19 290.672C1272.19 291.808 1272.12 292.944 1272.03 294.073C1271.79 297.368 1271.42 300.662 1271.03 303.942C1270.1 311.66 1269.02 319.363 1267.91 327.058C1267.49 329.952 1267.06 332.838 1266.66 335.731C1266.57 336.344 1266.81 336.943 1267.45 337.132C1267.98 337.284 1268.76 336.943 1268.85 336.337C1269.73 330.096 1270.66 323.862 1271.53 317.621C1272.56 310.092 1273.63 302.541 1274.25 294.967C1274.36 293.603 1274.46 292.24 1274.47 290.869C1274.48 290.081 1274.52 289.188 1274.27 288.43C1273.8 287.052 1271.61 287.642 1272.07 289.036Z" fill="#CFDAFF"/>
<path d="M1267.08 335.534C1262.8 338.624 1257.35 338.806 1252.26 338.639C1246.72 338.465 1241.09 337.67 1236.03 335.261C1236.22 335.587 1236.41 335.913 1236.59 336.246C1235.94 330.997 1235.28 325.748 1234.63 320.499C1233.59 312.175 1232.56 303.851 1231.52 295.52C1231.28 293.603 1231.04 291.695 1230.81 289.778C1230.06 289.877 1229.32 289.983 1228.57 290.081C1229.5 292.725 1231.98 294.232 1234.65 294.664C1237.84 295.179 1241.2 294.929 1244.42 294.944C1250.93 294.974 1257.69 295.474 1264.07 293.944C1267.46 293.134 1270.71 291.755 1273.67 289.937C1274.91 289.172 1273.77 287.211 1272.52 287.976C1269.42 289.877 1266.04 291.233 1262.48 291.975C1258.81 292.732 1255.04 292.725 1251.31 292.709C1247.46 292.694 1243.61 292.672 1239.77 292.649C1236.83 292.634 1231.99 292.967 1230.77 289.475C1230.37 288.354 1228.37 288.423 1228.53 289.778C1229.52 297.678 1230.5 305.578 1231.49 313.478C1232.15 318.818 1232.82 324.157 1233.49 329.497C1233.7 331.194 1233.91 332.891 1234.12 334.587C1234.18 335.034 1234.24 335.473 1234.29 335.92C1234.37 336.587 1234.52 337.003 1235.2 337.367C1237.8 338.753 1240.88 339.525 1243.76 340.056C1246.62 340.578 1249.53 340.828 1252.44 340.919C1257.84 341.078 1263.69 340.775 1268.23 337.496C1269.4 336.647 1268.27 334.678 1267.08 335.534Z" fill="#CFDAFF"/>
<path d="M1256.88 292.641C1256.08 283.128 1255.23 273.38 1257.11 263.935C1258.95 254.656 1263.93 246.476 1266.78 237.531C1267.5 235.267 1268.12 232.972 1268.62 230.654C1268.87 229.556 1269.09 228.45 1269.27 227.336C1269.46 226.253 1269.58 225.125 1270.01 224.102C1270.32 223.352 1270.89 222.565 1271.71 222.337C1272.56 222.103 1273.27 222.663 1273.74 223.307C1274.92 224.905 1275.31 227.162 1275.69 229.063C1276.6 233.684 1276.55 238.486 1276.2 243.166C1275.85 248.021 1274.77 252.589 1273.21 257.179C1272.36 259.64 1271.59 262.094 1271.24 264.677C1270.86 267.426 1270.79 270.206 1270.65 272.971C1270.52 275.682 1270.39 278.394 1270.26 281.098C1270.12 283.878 1269.85 286.672 1270.36 289.429C1270.62 290.869 1272.81 290.255 1272.55 288.824C1272.07 286.241 1272.41 283.514 1272.54 280.916C1272.67 278.326 1272.79 275.743 1272.92 273.153C1273.05 270.547 1273.1 267.926 1273.43 265.336C1273.74 262.852 1274.48 260.473 1275.29 258.11C1276.09 255.755 1276.89 253.407 1277.41 250.968C1277.93 248.514 1278.26 246.014 1278.45 243.515C1278.84 238.622 1278.85 233.63 1277.95 228.791C1277.37 225.647 1276.09 219.482 1271.68 220.035C1269.55 220.3 1268.2 222.156 1267.62 224.079C1266.95 226.344 1266.74 228.775 1266.21 231.078C1265.06 236.001 1263.37 240.743 1261.37 245.378C1259.44 249.862 1257.37 254.316 1255.98 259.004C1252.76 269.918 1253.67 281.446 1254.62 292.626C1254.73 294.088 1257 294.103 1256.88 292.641Z" fill="#CFDAFF"/>
<path d="M1268.1 223.723C1267.93 228.427 1267.99 233.206 1267.44 237.88C1266.93 242.204 1265.28 246.241 1263.68 250.256C1262.87 252.293 1262.08 254.331 1261.47 256.436C1260.84 258.58 1260.48 260.769 1260.19 262.98C1259.57 267.676 1259.04 272.387 1258.71 277.114C1258.33 282.62 1258.3 288.149 1258.62 293.663C1258.7 295.118 1260.98 295.125 1260.89 293.663C1260.34 283.984 1261.04 274.379 1262.23 264.768C1262.51 262.496 1262.81 260.231 1263.39 258.012C1263.94 255.891 1264.71 253.838 1265.51 251.801C1267.07 247.824 1268.78 243.863 1269.47 239.622C1270.31 234.403 1270.19 228.995 1270.38 223.723C1270.43 222.262 1268.16 222.269 1268.1 223.723Z" fill="#CFDAFF"/>
<path d="M1270.36 222.269C1270.56 225.541 1270.77 228.813 1270.98 232.078C1271.09 233.774 1271.19 235.471 1271.3 237.175C1271.4 238.789 1271.59 240.432 1271.41 242.045C1271.25 243.591 1270.7 245.075 1270.2 246.537C1269.68 248.037 1269.14 249.529 1268.6 251.021C1267.67 253.626 1266.63 256.247 1265.98 258.943C1265.16 262.344 1264.97 265.934 1264.81 269.411C1264.61 273.539 1264.58 277.674 1264.6 281.802C1264.63 284.983 1264.7 288.165 1264.76 291.346C1264.78 292.808 1267.05 292.808 1267.03 291.346C1266.91 284.544 1266.76 277.743 1267.01 270.941C1267.15 267.374 1267.29 263.723 1268.02 260.216C1269.16 254.725 1271.92 249.688 1273.3 244.265C1274.18 240.811 1273.56 237.1 1273.34 233.585C1273.11 229.813 1272.87 226.041 1272.63 222.262C1272.54 220.815 1270.27 220.807 1270.36 222.269Z" fill="#CFDAFF"/>
<path d="M1273.92 258.777C1274.44 259.656 1275.17 260.383 1276.02 260.943C1276.9 261.504 1277.87 261.807 1278.9 261.936C1279.16 261.966 1279.52 261.784 1279.7 261.602C1279.89 261.405 1280.05 261.08 1280.03 260.799C1280.02 260.504 1279.93 260.201 1279.7 259.997C1279.46 259.777 1279.21 259.701 1278.9 259.663C1278.86 259.656 1278.81 259.656 1278.77 259.648C1278.87 259.663 1278.98 259.678 1279.08 259.686C1278.7 259.633 1278.33 259.542 1277.97 259.406C1277.93 259.391 1277.88 259.368 1277.83 259.353C1277.7 259.3 1278.08 259.466 1277.9 259.383C1277.81 259.338 1277.72 259.3 1277.63 259.254C1277.46 259.163 1277.3 259.073 1277.14 258.966C1277.06 258.913 1276.99 258.868 1276.92 258.815C1276.88 258.792 1276.74 258.679 1276.89 258.792C1277.05 258.913 1276.89 258.785 1276.87 258.77C1276.72 258.648 1276.58 258.52 1276.45 258.383C1276.32 258.247 1276.18 258.111 1276.07 257.952C1276.11 258.012 1276.23 258.164 1276.12 258.012C1276.09 257.974 1276.06 257.929 1276.04 257.891C1275.99 257.808 1275.93 257.724 1275.88 257.633C1275.58 257.126 1274.84 256.891 1274.33 257.224C1273.81 257.55 1273.59 258.232 1273.92 258.777Z" fill="#CFDAFF"/>
<path d="M1276.39 258.315C1276.68 258.353 1276.97 258.315 1277.25 258.27C1277.53 258.224 1277.8 258.11 1278.05 257.989C1278.3 257.868 1278.53 257.694 1278.74 257.512C1278.95 257.323 1279.13 257.088 1279.28 256.846C1279.43 256.596 1279.47 256.247 1279.39 255.967C1279.32 255.702 1279.12 255.414 1278.87 255.285C1278.61 255.149 1278.29 255.073 1277.99 255.172C1277.71 255.263 1277.47 255.437 1277.31 255.694C1277.27 255.755 1277.23 255.816 1277.18 255.876C1277.24 255.8 1277.3 255.725 1277.36 255.649C1277.26 255.77 1277.14 255.884 1277.02 255.982C1277.1 255.922 1277.17 255.861 1277.25 255.808C1277.11 255.906 1276.97 255.997 1276.82 256.058C1276.91 256.02 1277 255.982 1277.09 255.944C1276.92 256.012 1276.76 256.058 1276.58 256.088C1276.68 256.073 1276.79 256.058 1276.89 256.05C1276.72 256.073 1276.55 256.073 1276.39 256.05C1276.23 256.043 1276.08 256.081 1275.95 256.149C1275.8 256.194 1275.68 256.27 1275.58 256.384C1275.39 256.58 1275.24 256.906 1275.25 257.186C1275.27 257.482 1275.36 257.785 1275.58 257.989C1275.66 258.05 1275.74 258.11 1275.81 258.163C1276 258.262 1276.19 258.315 1276.39 258.315Z" fill="#CFDAFF"/>
<path d="M1271.24 276.985C1271.68 277.629 1272.26 278.182 1272.96 278.553C1273.66 278.924 1274.43 279.128 1275.23 279.136C1275.82 279.136 1276.4 278.613 1276.37 278C1276.33 277.379 1275.87 276.864 1275.23 276.864C1275.08 276.864 1274.93 276.856 1274.77 276.833C1274.87 276.849 1274.98 276.864 1275.08 276.871C1274.76 276.826 1274.45 276.743 1274.15 276.621C1274.24 276.659 1274.33 276.697 1274.42 276.735C1274.11 276.606 1273.81 276.432 1273.55 276.228C1273.62 276.288 1273.7 276.349 1273.77 276.402C1273.53 276.212 1273.32 275.993 1273.13 275.75C1273.19 275.826 1273.25 275.902 1273.31 275.978C1273.27 275.932 1273.23 275.879 1273.2 275.826C1273.03 275.576 1272.82 275.387 1272.52 275.303C1272.24 275.228 1271.88 275.266 1271.64 275.417C1271.4 275.576 1271.18 275.803 1271.12 276.099C1271.06 276.394 1271.06 276.735 1271.24 276.985Z" fill="#CFDAFF"/>
<path d="M1272.3 274.736C1273.98 274.614 1275.58 274.198 1277.11 273.509C1277.36 273.403 1277.57 273.077 1277.64 272.827C1277.71 272.554 1277.68 272.191 1277.52 271.948C1277.16 271.388 1276.55 271.282 1275.97 271.539C1275.9 271.57 1275.61 271.744 1275.88 271.585C1275.81 271.623 1275.73 271.645 1275.66 271.676C1275.49 271.744 1275.32 271.804 1275.15 271.865C1274.82 271.979 1274.49 272.069 1274.17 272.153C1273.83 272.236 1273.5 272.304 1273.17 272.365C1273.08 272.38 1272.99 272.395 1272.9 272.41C1272.8 272.425 1272.84 272.418 1273 272.395C1272.95 272.403 1272.9 272.41 1272.84 272.41C1272.66 272.433 1272.48 272.448 1272.3 272.463C1271.71 272.509 1271.13 272.956 1271.16 273.599C1271.18 274.175 1271.66 274.781 1272.3 274.736Z" fill="#CFDAFF"/>
<path d="M1260.17 250.718C1258.75 249.65 1256.8 250.105 1255.26 250.635C1254.7 250.832 1254.27 251.423 1254.46 252.036C1254.64 252.589 1255.26 253.036 1255.86 252.831C1256.47 252.619 1257.08 252.437 1257.71 252.347C1257.61 252.362 1257.51 252.377 1257.41 252.384C1257.76 252.339 1258.1 252.331 1258.45 252.369C1258.35 252.354 1258.24 252.339 1258.14 252.331C1258.2 252.339 1258.73 252.453 1258.72 252.475C1258.72 252.483 1258.46 252.354 1258.61 252.43C1258.66 252.453 1258.7 252.475 1258.75 252.498C1258.85 252.551 1258.94 252.612 1259.03 252.68C1259.25 252.846 1259.65 252.862 1259.91 252.793C1260.17 252.718 1260.45 252.521 1260.59 252.271C1260.73 252.006 1260.8 251.688 1260.7 251.392C1260.6 251.097 1260.42 250.9 1260.17 250.718Z" fill="#CFDAFF"/>
<path d="M1260.71 250.241C1260.29 248.257 1259.35 246.424 1258.04 244.886C1257.65 244.432 1256.82 244.462 1256.43 244.886C1255.98 245.371 1256.02 246.007 1256.43 246.492C1256.5 246.575 1256.57 246.659 1256.64 246.742C1256.67 246.78 1256.7 246.84 1256.74 246.871C1256.69 246.833 1256.63 246.719 1256.71 246.833C1256.84 247.007 1256.97 247.189 1257.08 247.371C1257.32 247.749 1257.55 248.136 1257.75 248.537C1257.79 248.635 1257.84 248.734 1257.88 248.832C1257.91 248.885 1257.93 248.931 1257.95 248.984C1258.02 249.128 1257.88 248.787 1257.93 248.938C1258.01 249.143 1258.09 249.34 1258.16 249.552C1258.3 249.976 1258.42 250.408 1258.51 250.847C1258.63 251.43 1259.35 251.824 1259.91 251.642C1260.54 251.438 1260.84 250.862 1260.71 250.241Z" fill="#CFDAFF"/>
<path d="M1260.44 233.925C1260.69 233.872 1260.94 233.819 1261.19 233.774C1261.32 233.751 1261.46 233.729 1261.59 233.713C1261.4 233.744 1261.73 233.698 1261.76 233.691C1262.24 233.638 1262.73 233.607 1263.22 233.6C1263.7 233.592 1264.2 233.607 1264.68 233.653C1264.79 233.66 1264.91 233.675 1265.03 233.683C1265.05 233.683 1265.38 233.729 1265.19 233.698C1265.47 233.736 1265.73 233.782 1266.01 233.835C1266.59 233.948 1267.26 233.668 1267.41 233.039C1267.54 232.479 1267.24 231.759 1266.61 231.638C1264.36 231.206 1262.07 231.229 1259.84 231.721C1259.26 231.85 1258.86 232.555 1259.04 233.123C1259.23 233.744 1259.81 234.069 1260.44 233.925Z" fill="#CFDAFF"/>
<path d="M1267.93 231.608C1267.33 229.632 1265.94 227.905 1264.1 226.95C1263.57 226.678 1262.85 226.799 1262.55 227.359C1262.28 227.882 1262.39 228.624 1262.96 228.912C1263.16 229.01 1263.35 229.124 1263.54 229.245C1263.62 229.298 1263.7 229.359 1263.79 229.419C1263.82 229.45 1263.87 229.48 1263.91 229.51C1264.02 229.594 1263.7 229.344 1263.85 229.465C1264.18 229.738 1264.49 230.041 1264.77 230.374C1264.8 230.412 1264.83 230.45 1264.87 230.487C1264.99 230.639 1264.74 230.313 1264.82 230.427C1264.89 230.518 1264.95 230.609 1265.01 230.7C1265.13 230.874 1265.24 231.055 1265.34 231.237C1265.39 231.336 1265.44 231.434 1265.49 231.533C1265.54 231.624 1265.65 231.942 1265.52 231.593C1265.6 231.805 1265.68 232.002 1265.74 232.222C1265.91 232.79 1266.54 233.207 1267.14 233.017C1267.71 232.82 1268.11 232.214 1267.93 231.608Z" fill="#CFDAFF"/>
<path d="M1244.77 291.997C1242.37 286.832 1240.62 281.204 1240.77 275.455C1240.86 271.933 1241.73 268.494 1241.26 264.973C1240.57 259.784 1239.74 254.619 1238.96 249.445C1238.03 243.272 1237.09 237.092 1236.35 230.896C1236.16 229.207 1235.89 227.473 1235.91 225.769C1235.93 224.958 1235.96 224.042 1236.31 223.292C1236.84 222.156 1238.06 222.133 1239.12 222.504C1241.34 223.277 1242.87 225.549 1243.85 227.579C1245.21 230.412 1245.66 233.615 1246.07 236.698C1246.48 239.804 1246.95 242.886 1247.65 245.939C1249.08 252.149 1251.25 258.171 1254.05 263.897C1254.7 265.207 1256.66 264.056 1256.01 262.753C1253.39 257.413 1251.38 251.801 1250 246.022C1249.31 243.121 1248.8 240.182 1248.41 237.228C1248.03 234.358 1247.69 231.442 1246.74 228.692C1245.89 226.223 1244.59 223.83 1242.62 222.072C1240.93 220.55 1238.37 219.368 1236.14 220.406C1233.35 221.709 1233.53 225.36 1233.76 227.98C1234.3 233.956 1235.26 239.91 1236.13 245.84C1237.02 251.854 1237.97 257.86 1238.82 263.874C1238.85 264.086 1238.88 264.306 1238.91 264.518C1238.93 264.647 1239.01 265.23 1238.97 264.965C1239.01 265.268 1239.06 265.563 1239.09 265.866C1239.3 267.737 1239.06 269.623 1238.83 271.486C1238.47 274.493 1238.37 277.417 1238.78 280.424C1239.19 283.363 1239.99 286.233 1241.04 289.013C1241.57 290.414 1242.16 291.793 1242.8 293.148C1243.43 294.466 1245.39 293.315 1244.77 291.997Z" fill="#CFDAFF"/>
<path d="M1252.63 292.399C1251.17 291.353 1250.39 289.195 1249.72 287.597C1248.95 285.741 1248.39 283.825 1247.87 281.878C1247.36 279.939 1246.85 277.992 1246.52 276C1246.2 274.039 1245.77 271.85 1246.14 269.873C1246.54 267.767 1246.67 265.79 1246.4 263.655C1246.24 262.382 1246 261.125 1245.77 259.86C1245.64 259.148 1245.53 258.436 1245.41 257.724C1243.98 249.453 1242.46 241.182 1240.59 232.987C1239.75 229.283 1239.02 225.269 1237.33 221.838C1236.68 220.527 1234.72 221.678 1235.37 222.981C1235.42 223.095 1235.47 223.208 1235.53 223.322C1235.64 223.564 1235.49 223.216 1235.59 223.489C1235.71 223.792 1235.83 224.095 1235.93 224.405C1236.19 225.14 1236.42 225.882 1236.64 226.632C1237.2 228.556 1237.68 230.502 1238.13 232.457C1239.22 237.115 1240.16 241.811 1241.06 246.514C1241.78 250.286 1242.47 254.066 1243.13 257.845C1243.79 261.64 1244.67 265.412 1243.96 269.267C1243.52 271.577 1243.93 273.948 1244.28 276.25C1244.63 278.515 1245.22 280.734 1245.81 282.954C1246.39 285.105 1247.08 287.21 1247.98 289.248C1248.83 291.156 1249.75 293.103 1251.48 294.353C1252.67 295.209 1253.81 293.239 1252.63 292.399Z" fill="#CFDAFF"/>
<path d="M1246.97 273.812C1247.05 273.751 1247.11 273.683 1247.19 273.622C1247.23 273.592 1247.27 273.562 1247.3 273.532C1247.17 273.638 1247.15 273.653 1247.24 273.577C1247.4 273.463 1247.55 273.35 1247.71 273.251C1248.04 273.047 1248.37 272.857 1248.72 272.698C1248.76 272.676 1248.81 272.66 1248.85 272.638C1248.69 272.706 1248.67 272.714 1248.77 272.668C1248.86 272.63 1248.95 272.6 1249.05 272.562C1249.23 272.494 1249.41 272.433 1249.59 272.38C1249.77 272.327 1249.96 272.282 1250.15 272.244C1250.24 272.221 1250.34 272.206 1250.43 272.191C1250.51 272.176 1250.85 272.13 1250.48 272.176C1250.79 272.138 1251.05 272.077 1251.29 271.842C1251.48 271.646 1251.64 271.32 1251.62 271.04C1251.61 270.744 1251.51 270.441 1251.29 270.237C1251.08 270.047 1250.77 269.866 1250.48 269.903C1249.48 270.032 1248.55 270.282 1247.63 270.699C1246.8 271.07 1246.03 271.593 1245.35 272.198C1244.9 272.592 1244.92 273.41 1245.35 273.804C1245.84 274.251 1246.49 274.228 1246.97 273.812Z" fill="#CFDAFF"/>
<path d="M1245.82 275.576C1246 275.561 1246.17 275.561 1246.35 275.568C1246.41 275.568 1246.45 275.576 1246.51 275.584C1246.45 275.576 1246.41 275.568 1246.35 275.561C1246.36 275.546 1246.64 275.614 1246.66 275.621C1246.98 275.697 1247.31 275.803 1247.62 275.924C1247.78 275.985 1247.94 276.053 1248.09 276.114C1248.36 276.227 1247.92 276.046 1248.15 276.136C1248.23 276.167 1248.3 276.205 1248.38 276.235C1248.75 276.386 1249.1 276.538 1249.47 276.689C1249.76 276.811 1250.02 276.894 1250.35 276.803C1250.61 276.727 1250.89 276.53 1251.03 276.28C1251.16 276.015 1251.24 275.697 1251.14 275.402C1251.06 275.144 1250.88 274.834 1250.62 274.72C1249.82 274.387 1249.04 274.031 1248.23 273.72C1247.48 273.425 1246.64 273.22 1245.82 273.289C1245.23 273.342 1244.66 273.773 1244.69 274.425C1244.7 275.008 1245.18 275.629 1245.82 275.576Z" fill="#CFDAFF"/>
<path d="M1247.88 230.82C1247.94 230.669 1248 230.517 1248.07 230.358C1248.03 230.449 1247.99 230.54 1247.95 230.631C1248.23 229.987 1248.53 229.366 1248.88 228.76C1249.03 228.487 1249.19 228.23 1249.36 227.972C1249.47 227.813 1249.17 228.199 1249.36 227.98C1249.4 227.934 1249.44 227.896 1249.48 227.859C1249.51 227.836 1249.53 227.806 1249.56 227.783C1249.4 227.904 1249.36 227.927 1249.46 227.866C1249.52 227.828 1249.58 227.798 1249.65 227.768C1249.56 227.806 1249.47 227.843 1249.38 227.881C1249.46 227.851 1249.54 227.828 1249.64 227.813C1249.9 227.768 1250.19 227.51 1250.32 227.291C1250.46 227.048 1250.52 226.685 1250.43 226.412C1250.34 226.139 1250.17 225.874 1249.9 225.73C1249.61 225.579 1249.34 225.564 1249.02 225.617C1248.01 225.776 1247.4 226.738 1246.94 227.548C1246.45 228.404 1246.04 229.298 1245.68 230.207C1245.58 230.464 1245.66 230.85 1245.8 231.085C1245.93 231.32 1246.2 231.547 1246.48 231.608C1246.76 231.676 1247.09 231.661 1247.36 231.494C1247.62 231.328 1247.76 231.108 1247.88 230.82Z" fill="#CFDAFF"/>
<path d="M1246.61 233.055C1248.15 233.805 1249.87 234.169 1251.57 233.987C1251.88 233.957 1252.15 233.881 1252.38 233.654C1252.57 233.457 1252.73 233.131 1252.71 232.851C1252.69 232.29 1252.21 231.646 1251.57 231.715C1251.21 231.752 1250.85 231.768 1250.48 231.76C1250.3 231.752 1250.12 231.745 1249.94 231.722C1249.89 231.715 1249.6 231.654 1249.78 231.707C1249.97 231.76 1249.66 231.684 1249.62 231.677C1249.26 231.616 1248.91 231.525 1248.56 231.412C1248.39 231.359 1248.22 231.29 1248.04 231.23C1247.83 231.147 1248.26 231.328 1248.03 231.222C1247.94 231.177 1247.84 231.139 1247.75 231.086C1247.22 230.828 1246.5 230.927 1246.2 231.495C1245.93 232.01 1246.04 232.775 1246.61 233.055Z" fill="#CFDAFF"/>
<path d="M1236.34 236.986C1236 236.516 1235.59 236.221 1235.05 236.016C1234.73 235.895 1234.4 235.835 1234.06 235.774C1233.23 235.615 1232.39 235.464 1231.56 235.327C1231.25 235.274 1230.97 235.274 1230.68 235.441C1230.44 235.577 1230.22 235.85 1230.16 236.123C1230.03 236.668 1230.32 237.418 1230.95 237.524C1231.71 237.653 1232.47 237.781 1233.22 237.925C1233.54 237.986 1233.87 238.039 1234.19 238.13C1234.25 238.152 1234.32 238.175 1234.39 238.198C1234.59 238.266 1234.13 238.069 1234.37 238.19C1234.39 238.205 1234.42 238.221 1234.44 238.236C1234.54 238.304 1234.51 238.274 1234.35 238.16C1234.4 238.221 1234.59 238.448 1234.37 238.145C1234.56 238.395 1234.75 238.584 1235.06 238.667C1235.33 238.743 1235.69 238.705 1235.94 238.554C1236.4 238.236 1236.72 237.493 1236.34 236.986Z" fill="#CFDAFF"/>
<path d="M1235.05 238.516C1234.93 238.652 1234.79 238.773 1234.65 238.887C1234.72 238.826 1234.8 238.766 1234.87 238.713C1234.59 238.932 1234.28 239.114 1233.97 239.288C1233.59 239.508 1233.23 239.735 1232.88 240.008C1232.16 240.576 1231.64 241.432 1231.64 242.363C1231.64 242.954 1232.16 243.53 1232.78 243.499C1233.39 243.469 1233.91 243 1233.91 242.363C1233.91 242.303 1233.91 242.242 1233.92 242.182C1233.91 242.28 1233.89 242.386 1233.88 242.485C1233.9 242.348 1233.94 242.219 1233.99 242.091C1233.95 242.182 1233.91 242.272 1233.88 242.363C1233.94 242.204 1234.03 242.06 1234.13 241.924C1234.07 242 1234.01 242.075 1233.96 242.151C1234.12 241.939 1234.32 241.75 1234.53 241.583C1234.46 241.644 1234.38 241.704 1234.31 241.757C1235.07 241.182 1236 240.848 1236.65 240.121C1236.86 239.894 1236.99 239.629 1236.99 239.318C1236.99 239.038 1236.87 238.705 1236.65 238.516C1236.22 238.114 1235.47 238.038 1235.05 238.516Z" fill="#CFDAFF"/>
<path d="M1231.42 289.831C1231.41 287.233 1231.2 284.612 1230.57 282.09C1230.16 280.409 1229.47 278.864 1228.72 277.311C1226.07 271.91 1224.7 266.018 1222.85 260.33C1221.94 257.535 1220.92 254.762 1219.62 252.119C1218.96 250.778 1218.09 249.498 1217.58 248.09C1217.05 246.59 1217.02 244.969 1216.92 243.401C1216.8 241.758 1215.8 236.887 1218.76 237.19C1220.13 237.334 1221.11 238.478 1221.91 239.501C1222.95 240.841 1223.94 242.227 1224.95 243.583C1229.49 249.68 1234.02 255.77 1238.56 261.867C1239.42 263.026 1241.39 261.897 1240.52 260.723C1236.21 254.929 1231.9 249.135 1227.58 243.341C1226.51 241.894 1225.42 240.44 1224.35 238.993C1223.47 237.811 1222.59 236.615 1221.35 235.789C1218.97 234.206 1215.69 234.835 1214.74 237.698C1214.3 239.023 1214.43 240.47 1214.52 241.833C1214.64 243.5 1214.71 245.189 1214.95 246.847C1215.42 250.029 1217.54 252.763 1218.75 255.694C1221.2 261.587 1222.53 267.858 1224.77 273.819C1225.7 276.303 1227.07 278.621 1227.92 281.128C1228.87 283.931 1229.13 286.892 1229.15 289.838C1229.16 291.293 1231.43 291.3 1231.42 289.831Z" fill="#CFDAFF"/>
<path d="M1215.41 238.463C1216.46 239.357 1216.6 240.781 1216.92 242.053C1217.35 243.765 1218.23 245.303 1219.02 246.863C1220.65 250.052 1222.16 253.362 1224.14 256.346C1225.95 259.065 1228.11 261.58 1229.52 264.541C1230.26 266.109 1230.91 267.684 1231.74 269.207C1232.57 270.722 1232.94 272.38 1233.38 274.032C1234.34 277.591 1236.07 280.818 1238.59 283.522C1239.59 284.598 1241.19 282.984 1240.19 281.916C1237.94 279.493 1236.43 276.614 1235.57 273.426C1235.13 271.797 1234.75 270.161 1234 268.639C1233.25 267.086 1232.46 265.586 1231.76 263.996C1230.44 260.974 1228.32 258.436 1226.48 255.732C1224.46 252.794 1222.95 249.537 1221.33 246.371C1220.43 244.629 1219.46 242.947 1219.02 241.031C1218.65 239.493 1218.28 237.91 1217.02 236.842C1215.91 235.918 1214.3 237.516 1215.41 238.463Z" fill="#CFDAFF"/>
<path d="M1221.63 262.996C1220.94 263.639 1220.18 264.208 1219.5 264.859C1219.11 265.23 1218.75 265.631 1218.42 266.063C1218.09 266.503 1217.86 266.965 1217.64 267.472C1217.54 267.722 1217.63 268.123 1217.76 268.351C1217.89 268.585 1218.17 268.813 1218.44 268.873C1218.73 268.941 1219.05 268.926 1219.32 268.76C1219.58 268.585 1219.72 268.373 1219.84 268.078C1219.69 268.434 1219.85 268.078 1219.89 267.995C1219.95 267.896 1220 267.798 1220.05 267.707C1220.11 267.616 1220.17 267.525 1220.23 267.434C1220.26 267.396 1220.3 267.351 1220.32 267.313C1220.45 267.131 1220.14 267.525 1220.29 267.351C1220.57 267.002 1220.88 266.684 1221.2 266.381C1221.86 265.768 1222.58 265.215 1223.25 264.601C1223.69 264.2 1223.69 263.397 1223.25 262.996C1222.77 262.564 1222.1 262.564 1221.63 262.996Z" fill="#CFDAFF"/>
<path d="M1222.53 263.064C1221.06 261.875 1219.19 261.208 1217.28 261.39C1216.97 261.42 1216.7 261.496 1216.47 261.723C1216.28 261.92 1216.13 262.246 1216.14 262.526C1216.16 263.094 1216.64 263.723 1217.28 263.662C1217.67 263.624 1218.06 263.624 1218.45 263.662C1218.5 263.67 1218.55 263.67 1218.6 263.677C1218.41 263.655 1218.38 263.647 1218.51 263.67C1218.59 263.685 1218.66 263.693 1218.73 263.708C1218.92 263.746 1219.12 263.791 1219.3 263.844C1219.49 263.897 1219.67 263.965 1219.85 264.033C1220.1 264.124 1219.62 263.92 1219.85 264.033C1219.94 264.079 1220.03 264.117 1220.12 264.162C1220.29 264.253 1220.46 264.351 1220.63 264.458C1220.71 264.511 1220.79 264.564 1220.87 264.624C1220.91 264.654 1220.94 264.685 1220.99 264.707C1220.85 264.601 1220.84 264.594 1220.93 264.67C1221.17 264.867 1221.41 265.003 1221.73 265.003C1222.01 265.003 1222.34 264.882 1222.53 264.67C1222.91 264.261 1223.03 263.465 1222.53 263.064Z" fill="#CFDAFF"/>
<path d="M1213.86 245.977C1213.79 246.09 1213.72 246.204 1213.64 246.31C1213.7 246.234 1213.76 246.158 1213.81 246.083C1213.41 246.598 1212.88 246.976 1212.39 247.385C1212.14 247.59 1211.92 247.794 1211.71 248.037C1211.39 248.423 1211.16 248.802 1210.99 249.279C1210.9 249.544 1210.97 249.923 1211.11 250.158C1211.24 250.392 1211.52 250.62 1211.79 250.68C1212.08 250.748 1212.4 250.733 1212.67 250.567C1212.92 250.4 1213.08 250.18 1213.19 249.885C1213.2 249.847 1213.22 249.809 1213.24 249.771C1213.2 249.862 1213.16 249.953 1213.12 250.044C1213.2 249.855 1213.31 249.673 1213.44 249.506C1213.38 249.582 1213.32 249.658 1213.27 249.733C1213.61 249.279 1214.08 248.931 1214.52 248.575C1215.03 248.158 1215.51 247.696 1215.83 247.12C1216.13 246.605 1215.97 245.855 1215.42 245.568C1214.87 245.28 1214.17 245.424 1213.86 245.977Z" fill="#CFDAFF"/>
<path d="M1210.14 245.553C1211.7 245.636 1213.26 245.727 1214.83 245.81C1215.42 245.841 1215.99 245.265 1215.97 244.674C1215.94 244.03 1215.47 243.576 1214.83 243.538C1213.26 243.455 1211.7 243.364 1210.14 243.28C1209.55 243.25 1208.98 243.826 1209 244.417C1209.03 245.06 1209.5 245.515 1210.14 245.553Z" fill="#CFDAFF"/>
<path d="M1232.65 266.078C1233.84 265.427 1235.06 264.828 1236.29 264.283C1236.53 264.177 1236.75 263.851 1236.81 263.601C1236.89 263.329 1236.85 262.965 1236.7 262.723C1236.54 262.48 1236.31 262.268 1236.02 262.2C1235.7 262.124 1235.44 262.185 1235.14 262.314C1233.9 262.859 1232.69 263.458 1231.5 264.109C1230.97 264.397 1230.76 265.154 1231.09 265.662C1231.44 266.199 1232.09 266.381 1232.65 266.078Z" fill="#CFDAFF"/>
<path d="M1232.24 266.866C1233.71 267.54 1235.18 268.222 1236.65 268.896C1236.94 269.024 1237.21 269.093 1237.53 269.009C1237.8 268.934 1238.08 268.737 1238.21 268.487C1238.48 267.987 1238.38 267.199 1237.8 266.934C1236.33 266.26 1234.86 265.578 1233.4 264.904C1233.11 264.775 1232.83 264.707 1232.52 264.79C1232.25 264.866 1231.96 265.063 1231.84 265.313C1231.57 265.813 1231.67 266.601 1232.24 266.866Z" fill="#CFDAFF"/>
<path d="M757.666 203.459C757.666 203.459 767.823 186.718 775.197 181.181C782.57 175.644 756.758 173.803 756.758 173.803C756.758 173.803 751.225 166.424 730.945 168.266C710.666 170.108 705.133 170.108 708.826 179.34L715.184 195.407L736.478 212.549L757.666 203.459Z" fill="#16F1D1"/>
<path d="M762.881 208.677C759.92 198.323 736.479 205.159 736.479 205.159C729.106 183.023 701.453 201.464 701.453 201.464L693.301 200.083C689.585 150.829 648.495 112 598.31 112C545.671 112 503 154.701 503 207.378C503 260.056 545.671 302.757 598.31 302.757C637.63 302.757 671.382 278.921 685.94 244.909L701.465 245.747L710.678 229.148C710.678 249.442 727.265 258.663 745.704 253.126C751.674 251.331 753.255 248.049 755.461 243.563C755.697 243.079 755.048 239.195 755.461 238.841C763.719 231.757 760.451 221.77 760.451 221.77C760.451 221.77 765.5 217.827 762.881 208.677Z" fill="#4964F5"/>
<path d="M686.223 247.848C690.482 247.601 694.752 247.683 698.999 248.096C699.955 248.191 700.769 247.211 700.769 246.326C700.769 245.287 699.955 244.649 698.999 244.555C694.752 244.141 690.482 244.047 686.223 244.307C685.267 244.366 684.453 245.086 684.453 246.078C684.453 246.987 685.255 247.896 686.223 247.848Z" fill="#222222"/>
<path d="M732.797 341.668C732.797 341.668 651.691 347.205 684.865 269.724L709.863 229.089C710.323 228.345 711.456 228.711 711.397 229.585C710.925 236.833 712.86 251.732 736.478 253.125C736.478 253.125 747.721 254.082 754.079 248.072C754.079 248.061 804.69 336.131 732.797 341.668Z" fill="#16F1D1"/>
<path d="M710.701 176.719C710.619 180.65 713.273 184.074 716.8 185.597C721.236 187.51 726.073 186.364 730.379 184.688C732.573 183.838 734.85 182.846 737.257 182.894C739.439 182.941 740.949 184.157 742.506 185.55C743.922 186.825 745.338 188.088 747.131 188.785C749.207 189.587 751.461 189.457 753.608 189.068C758.574 188.159 763.163 185.833 767.068 182.669C768.838 181.229 766.325 178.738 764.567 180.166C760.898 183.141 755.955 185.585 751.177 185.845C746.293 186.105 744.17 180.969 739.793 179.718C734.449 178.207 729.695 181.784 724.657 182.799C720.41 183.649 714.134 182.15 714.252 176.731C714.287 174.441 710.748 174.441 710.701 176.719Z" fill="#222222"/>
<path d="M776.98 271.566C783.044 274.21 787.928 279.228 790.7 285.296C790.96 285.697 791.621 285.697 791.892 285.296C794.534 279.228 799.548 274.34 805.612 271.566C806.143 271.306 806.143 270.645 805.612 270.374C799.548 267.729 794.664 262.712 791.892 256.644C791.632 256.112 790.972 256.112 790.7 256.644C788.058 262.712 783.044 267.599 776.98 270.374C776.449 270.633 776.449 271.294 776.98 271.566Z" fill="#FDC93A"/>
<path d="M776.695 298.318C779.727 299.64 782.157 302.143 783.549 305.177C783.679 305.378 784.009 305.378 784.139 305.177C785.46 302.143 787.961 299.711 790.993 298.318C791.252 298.188 791.252 297.858 790.993 297.728C787.961 296.406 785.531 293.903 784.139 290.869C784.009 290.609 783.679 290.609 783.549 290.869C782.228 293.903 779.727 296.335 776.695 297.728C776.435 297.846 776.435 298.176 776.695 298.318Z" fill="#FDC93A"/>
<path d="M676.421 342C679.453 343.322 681.883 345.825 683.275 348.859C683.405 349.059 683.735 349.059 683.865 348.859C685.187 345.825 687.688 343.393 690.719 342C690.979 341.87 690.979 341.539 690.719 341.409C687.688 340.087 685.257 337.584 683.865 334.55C683.735 334.291 683.405 334.291 683.275 334.55C681.954 337.584 679.453 340.016 676.421 341.409C676.162 341.527 676.162 341.858 676.421 342Z" fill="#FDC93A"/>
<path d="M657.542 321.929C660.574 323.252 663.004 325.754 664.397 328.789C664.526 328.989 664.857 328.989 664.986 328.789C666.308 325.754 668.809 323.322 671.841 321.929C672.1 321.8 672.1 321.469 671.841 321.339C668.809 320.017 666.378 317.514 664.986 314.48C664.857 314.22 664.526 314.22 664.397 314.48C663.075 317.514 660.574 319.946 657.542 321.339C657.283 321.457 657.283 321.788 657.542 321.929Z" fill="#FDC93A"/>
<path d="M604.173 114.007C604.787 113.205 603.996 114.208 603.831 114.397C603.241 115.082 602.628 115.743 601.991 116.392C599.761 118.682 597.319 120.807 594.771 122.72C585.652 129.579 575.117 134.349 564.098 137.206C555.085 139.531 545.813 140.547 536.505 140.57C534.228 140.57 534.228 144.112 536.505 144.112C552.03 144.077 567.555 141.243 581.688 134.656C589.804 130.878 597.508 125.849 603.878 119.532C605.07 118.352 606.214 117.136 607.229 115.802C608.609 113.984 605.542 112.213 604.173 114.007Z" fill="#222222"/>
<path d="M621.74 117.561C621.681 117.714 622.023 116.971 621.787 117.443C621.646 117.726 621.516 118.021 621.363 118.305C620.808 119.379 620.183 120.406 619.51 121.398C619.038 122.106 618.531 122.803 618.012 123.487C617.705 123.889 618.13 123.346 617.8 123.759C617.623 123.971 617.458 124.196 617.281 124.408C616.939 124.833 616.585 125.246 616.219 125.66C614.544 127.584 612.715 129.402 610.804 131.09C605.519 135.754 599.29 139.614 592.778 142.731C583.257 147.288 573.017 150.263 562.683 152.258C547.996 155.091 532.954 155.918 518.019 155.646C515.73 155.599 513.453 155.528 511.176 155.446C508.9 155.351 508.9 158.893 511.176 158.987C527.15 159.625 543.218 159.105 559.014 156.508C570.151 154.678 581.122 151.75 591.48 147.217C598.676 144.065 605.519 140.074 611.594 135.081C615.452 131.905 618.968 128.292 621.87 124.219C623.038 122.578 624.583 120.571 625.138 118.576C625.149 118.553 625.161 118.529 625.173 118.505C625.999 116.392 622.578 115.471 621.74 117.561Z" fill="#222222"/>
<path d="M621.798 132.117C623.555 135.623 626.658 138.704 629.596 141.219C637.783 148.243 648.07 152.434 658.546 154.595C667.984 156.555 677.693 156.98 687.296 156.507C689.561 156.389 689.573 152.848 687.296 152.966C672.809 153.686 657.614 152.458 644.26 146.331C637.512 143.238 631.389 139.035 626.753 133.203C626.481 132.872 626.929 133.439 626.682 133.12C626.599 133.014 626.517 132.896 626.434 132.79C626.281 132.589 626.139 132.377 625.997 132.176C625.773 131.857 625.561 131.538 625.36 131.208C625.183 130.924 625.007 130.641 624.853 130.334C623.827 128.292 620.771 130.086 621.798 132.117Z" fill="#222222"/>
<path d="M603.799 209.621C613.629 209.621 621.598 201.647 621.598 191.81C621.598 181.974 613.629 174 603.799 174C593.969 174 586 181.974 586 191.81C586 201.647 593.969 209.621 603.799 209.621Z" fill="white"/>
<path d="M646.799 209.621C656.629 209.621 664.598 201.647 664.598 191.81C664.598 181.974 656.629 174 646.799 174C636.969 174 629 181.974 629 191.81C629 201.647 636.969 209.621 646.799 209.621Z" fill="white"/>
<path d="M647.827 179.844C641.273 179.844 635.961 185.159 635.961 191.717C635.961 198.276 641.273 203.591 647.827 203.591C654.381 203.591 659.693 198.276 659.693 191.717C659.693 185.159 654.381 179.844 647.827 179.844Z" fill="#222222"/>
<path d="M605.303 203.578C611.857 203.578 617.169 198.262 617.169 191.705C617.169 185.147 611.857 179.831 605.303 179.831C598.75 179.831 593.438 185.147 593.438 191.705C593.438 198.262 598.75 203.578 605.303 203.578Z" fill="#222222"/>
<path d="M637.97 224.492C637.116 232.112 630.315 237.913 622.503 237.165C614.811 236.427 608.81 229.671 609.474 221.956C609.67 219.698 606.13 219.022 605.941 221.306C605.322 228.644 609.143 235.735 615.911 238.984C622.655 242.229 630.787 240.911 636.199 235.844C639.198 233.038 641.053 229.177 641.505 225.13C641.75 222.868 638.22 222.207 637.97 224.492Z" fill="#222222"/>
<path d="M760.818 222.431C760.771 222.36 760.712 222.301 760.653 222.242C760.665 222.23 760.677 222.218 760.677 222.195C762.835 220.117 763.531 216.693 763.59 213.813C763.685 209.693 762.529 205.608 759.037 203.129C755.804 200.838 751.522 200.59 747.688 200.567C745.576 200.555 743.464 200.614 741.364 200.897C739.477 201.145 737.589 201.452 735.678 201.488C735.643 201.488 735.607 201.499 735.56 201.499C734.675 199.988 733.555 198.607 732.269 197.438C728.789 194.298 724.141 192.586 719.445 192.68C714.455 192.787 709.441 194.794 705.005 196.942C703.495 197.674 701.938 198.453 700.534 199.386C700.192 199.339 699.697 199.374 699.484 199.363C696.7 199.138 693.916 198.902 691.132 198.678C688.867 198.489 688.879 202.031 691.132 202.22C693.244 202.397 695.355 202.562 697.467 202.739C699.095 202.869 700.806 203.353 702.268 202.479C708.533 198.725 716.696 194.664 724.117 196.824C728.034 197.969 731.337 200.697 733.095 204.392C734.215 206.741 734.392 209.445 734.534 212.006C734.664 214.462 734.616 216.941 734.333 219.385C733.649 225.312 731.408 234.555 724.164 234.839C719.776 235.004 715.8 233.08 714.384 228.806C713.358 225.725 713.334 222.466 713.358 219.255C713.381 216.977 709.842 216.977 709.819 219.255C709.795 221.333 709.819 223.423 710.066 225.489C710.055 225.5 710.031 225.512 710.019 225.524C709.783 225.748 709.547 225.961 709.3 226.173C709.264 226.209 709.252 226.221 709.241 226.232C709.193 226.256 709.146 226.291 709.134 226.303C708.981 226.409 708.84 226.516 708.686 226.61C708.002 227.059 707.294 227.425 706.551 227.755C706.539 227.755 706.539 227.755 706.527 227.767C706.433 227.803 706.327 227.838 706.232 227.885C706.032 227.956 705.831 228.027 705.631 228.098C705.23 228.228 704.817 228.346 704.392 228.44C704.18 228.487 703.967 228.534 703.755 228.57C703.649 228.594 703.543 228.605 703.436 228.629C703.425 228.629 703.425 228.629 703.425 228.629C702.965 228.676 702.516 228.712 702.044 228.712C701.124 228.723 700.228 229.526 700.275 230.482C700.322 231.439 701.053 232.265 702.044 232.253C705.1 232.23 708.32 231.203 710.869 229.396C711.057 230.01 711.282 230.6 711.541 231.155C710.81 235.689 712.119 240.104 714.502 243.965C716.236 246.786 718.596 249.773 721.581 251.355C730.322 255.971 740.574 258.072 749.505 252.748C751.84 251.355 754.294 249.643 755.498 247.128C756.654 244.732 756.724 242.135 756.276 239.573C758.836 237.637 761.172 235.193 762.269 232.135C762.847 230.506 763.036 228.664 762.788 226.964C762.576 225.3 761.797 223.789 760.818 222.431ZM745.187 204.156C748.537 204.049 752.206 203.931 755.38 205.183C758.565 206.422 759.922 209.291 760.051 212.573C760.146 215.017 759.969 218.866 757.515 220.2C757.491 220.211 757.48 220.223 757.456 220.235C751.227 223.458 744.172 224.662 737.2 223.753C738.108 219.657 738.356 215.395 738.061 211.239C737.908 209.102 737.684 206.977 737.082 204.947C739.784 204.77 742.462 204.238 745.187 204.156ZM752.289 245.735C751.31 247.577 749.304 248.805 747.546 249.832C744.231 251.768 740.527 252.665 736.693 252.453C732.481 252.229 728.364 250.741 724.601 248.911C722.017 247.66 720.118 245.865 718.466 243.516C716.826 241.202 715.446 238.463 715.009 235.606C716.024 236.397 717.18 237.035 718.513 237.507C720.436 238.168 722.572 238.499 724.648 238.357C724.671 238.723 724.801 239.101 725.12 239.443C728.753 243.457 734.298 243.835 739.371 243.882C742.096 243.906 744.833 243.87 747.523 243.327C749.446 242.937 751.262 242.194 753.008 241.332C753.15 242.843 752.997 244.39 752.289 245.735ZM758.895 231.203C758.034 233.528 755.993 235.464 753.999 236.905C753.858 236.94 753.716 236.987 753.563 237.07C751.392 238.227 749.233 239.337 746.815 239.856C744.538 240.352 742.19 240.364 739.878 240.34C735.891 240.317 731.372 240.34 728.258 237.566C729.449 237.105 730.558 236.433 731.526 235.523C733.885 233.28 735.324 230.069 736.315 227C736.575 227.141 736.882 227.248 737.2 227.283C744.184 228.18 751.31 227.012 757.68 224.06C757.704 224.107 757.727 224.166 757.763 224.214C758.529 225.276 759.167 226.315 759.367 227.602C759.52 228.594 759.296 230.105 758.895 231.203Z" fill="#222222"/>
<path d="M751.956 317.03C749.88 317.975 747.626 318.282 745.361 318.376C743.049 318.482 740.607 318.364 738.472 317.361C736.348 316.357 734.756 314.598 733.729 312.532C737.776 312.461 741.822 312.402 745.869 312.367C746.824 312.355 747.697 311.812 747.803 310.785C747.886 309.911 747.178 308.837 746.223 308.849C741.681 308.896 737.127 308.967 732.585 309.05C732.502 308.542 732.443 308.022 732.42 307.515C732.408 307.255 732.42 306.972 732.432 306.712C737.115 306.629 741.787 306.547 746.47 306.499C747.426 306.488 748.299 305.945 748.405 304.918C748.488 304.044 747.78 302.97 746.824 302.981C742.176 303.029 737.516 303.099 732.868 303.194C733.552 300.301 735.027 297.527 737.41 295.945C741.398 293.289 746.518 293.737 751.036 294.269C753.301 294.528 753.655 291.01 751.39 290.739C746.86 290.219 742.141 289.936 737.835 291.731C733.859 293.383 731.276 296.701 729.931 300.726C729.659 301.553 729.459 302.403 729.294 303.265C727.689 303.3 726.085 303.324 724.492 303.359C723.537 303.383 722.664 303.914 722.557 304.941C722.475 305.803 723.183 306.901 724.138 306.877C725.754 306.842 727.371 306.818 728.975 306.783C728.975 307.574 729.046 308.353 729.152 309.12C727.406 309.156 725.648 309.191 723.902 309.227C722.947 309.25 722.074 309.781 721.967 310.809C721.885 311.67 722.593 312.768 723.548 312.745C725.695 312.697 727.831 312.662 729.978 312.615C731.346 316.499 734.142 319.769 738.448 321.15C740.878 321.93 743.427 321.989 745.963 321.871C748.535 321.741 751.071 321.327 753.442 320.253C755.507 319.309 754.044 316.086 751.956 317.03Z" fill="#222222"/>
<path d="M708 96V62C708 60.3431 709.343 59 711 59H744.5C746.157 59 747.5 60.3431 747.5 62V96C747.5 97.6569 746.157 99 744.5 99H711C709.343 99 708 97.6569 708 96Z" stroke="#FFCFDB" stroke-width="2" stroke-linecap="round"/>
<path d="M741 146V112C741 110.343 742.343 109 744 109H777.5C779.157 109 780.5 110.343 780.5 112V146C780.5 147.657 779.157 149 777.5 149H744C742.343 149 741 147.657 741 146Z" stroke="#FFCFDB" stroke-width="2" stroke-linecap="round"/>
<ellipse cx="1117.5" cy="331" rx="39.5" ry="9" fill="#CFDAFF"/>
<path d="M80.9009 124.194L83.6154 138.129L87.5481 144.039L97.63 149.53L110.807 148.632L118.414 143.701L123.026 133.679L123.945 121.261L113.104 117.587L114.622 113.954L119.014 113.654L125.403 116.749L135.784 126.632L142.112 128.849L133.428 117.967L128.617 112.118L121.35 109.083L115.141 108.623L108.173 109.98L109.332 101.076L112.127 90.2953L107.855 92.3514L104.401 93.4693L102.864 83.8662L104.961 75.7806L104.841 74.0237L101.447 76.02L93.5814 64.2005L93.1818 71.288L93.0216 81.8892L93.261 85.403L85.994 82.368L88.2297 89.2759L91.5234 98.7593L92.8208 104.849L91.4828 111.117L80.9414 111.836L66.0078 112.853L67.9442 115.369L80.3024 115.409L84.7545 115.988L86.6909 118.504L87.7489 121.08L80.9009 124.194Z" fill="#E8FFFC"/>
<path d="M82.3079 124.601C82.4387 128.722 83.1392 132.787 84.4557 136.695C84.7545 137.584 85.0879 138.461 85.4476 139.337C85.7538 140.075 86.0032 140.755 86.2936 141.133C86.7091 141.66 87.5382 142.301 88.1978 142.786C90.2686 144.295 92.5851 145.523 94.9235 146.555C96.7983 147.389 98.6049 147.998 100.5 147.958C103.179 147.907 105.872 148.05 108.554 147.912C108.88 147.898 109.195 147.859 109.518 147.82C109.632 147.803 109.746 147.786 109.859 147.761C109.58 147.815 109.806 147.774 109.936 147.738C110.223 147.666 110.508 147.584 110.793 147.486C114.647 146.155 117.49 142.281 119.417 138.699C120.341 136.986 121.336 135.127 121.888 133.262C122.161 132.344 122.177 131.292 122.254 130.343C122.481 127.583 122.61 124.812 122.651 122.046C122.677 120.359 125.311 120.162 125.286 121.867C125.25 124.579 125.108 127.289 124.913 129.994C124.83 131.103 124.774 132.227 124.575 133.326C124.314 134.809 123.54 136.265 122.909 137.623C120.708 142.362 117.543 147.335 112.631 149.593C109.37 151.086 105.567 150.569 102.099 150.576C100.952 150.583 99.7773 150.698 98.6361 150.529C97.5131 150.367 96.4185 149.974 95.3584 149.57C92.7494 148.583 90.2325 147.263 87.8958 145.736C86.8059 145.025 85.6873 144.28 84.7676 143.346C83.6578 142.212 83.1508 140.729 82.5835 139.267C80.8038 134.649 79.8414 129.72 79.6813 124.78C79.6185 123.081 82.2533 122.893 82.3079 124.601Z" fill="#A3EADF"/>
<path d="M124.198 122.497C121.733 125.304 118.432 127.117 114.982 128.429C111.12 129.901 107.031 130.895 102.918 131.272C95.173 131.976 87.2531 130.239 80.9589 125.549C79.5921 124.53 81.337 122.549 82.6943 123.56C88.4216 127.829 95.7132 129.283 102.738 128.637C106.518 128.291 110.224 127.376 113.771 126.058C116.93 124.89 119.964 123.315 122.208 120.753C123.331 119.485 125.32 121.221 124.198 122.497Z" fill="#A3EADF"/>
<path d="M102.603 125.124C99.2667 125.643 95.8468 125.187 92.732 123.899C91.1339 123.24 89.6244 122.328 88.288 121.237C86.9047 120.104 85.7364 118.631 84.1503 117.759C81.1239 116.086 77.3542 116.713 74.0504 116.797C70.6582 116.878 67.2177 116.768 63.883 116.139C60.2173 115.445 56.734 114.058 53.7881 111.753C52.8188 110.998 53.5085 109.592 54.566 109.44C56.3579 109.186 57.8152 110.11 59.3579 110.861C61.0828 111.697 62.9353 111.685 64.8064 111.558C69.0317 111.27 73.2517 110.903 77.4746 110.58C84.7786 110.012 93.4347 108.566 99.6385 113.483C102.606 115.84 104.448 119.315 104.127 123.141C103.986 124.827 101.398 124.289 101.54 122.611C101.788 119.638 99.9206 116.976 97.6421 115.269C94.9356 113.238 91.4189 112.657 88.1061 112.609C84.4045 112.553 80.6918 112.982 77.0047 113.269C73.1244 113.568 69.2365 113.886 65.3549 114.168C63.4581 114.306 61.4867 114.388 59.6474 113.816C58.0607 113.324 56.459 111.835 54.7368 112.076C54.9934 111.309 55.2581 110.532 55.5147 109.764C60.6319 113.757 67.4384 114.309 73.6952 114.174C76.9556 114.101 80.3841 113.647 83.5507 114.658C86.9071 115.736 88.8044 118.713 91.7301 120.464C94.9589 122.389 98.7125 123.077 102.416 122.507C104.1 122.225 104.27 124.861 102.603 125.124Z" fill="#A3EADF"/>
<path d="M102.455 122.285C105.994 121.241 109.008 119.102 111.151 116.106C112.239 114.584 113.323 113.266 115.14 112.604C116.69 112.04 118.445 112.017 120.048 112.367C123.765 113.173 126.44 115.903 128.911 118.62C131.458 121.421 134.191 123.962 137.457 125.919C141.128 128.122 145.157 129.613 149.38 130.331C149.201 131.191 149.03 132.058 148.851 132.918C141.032 130.459 136.57 123.129 131.693 117.089C130.796 115.977 129.881 114.856 128.72 114.009C127.355 113.016 125.885 112.154 124.425 111.318C122.817 110.395 121.274 109.503 119.364 109.448C117.188 109.384 114.955 109.766 112.916 110.532C108.5 112.174 104.613 116.64 105.923 121.625C106.352 123.264 103.861 124.139 103.432 122.501C102.241 117.975 104.16 113.361 107.722 110.462C109.552 108.96 111.823 107.967 114.116 107.423C116.452 106.867 119.093 106.51 121.461 107.064C123.263 107.488 124.925 108.557 126.498 109.492C127.996 110.378 129.541 111.279 130.894 112.369C132.258 113.468 133.357 114.964 134.439 116.337C135.579 117.778 136.676 119.247 137.825 120.696C140.925 124.615 144.44 128.805 149.382 130.357C150.97 130.858 150.567 133.242 148.852 132.944C141.691 131.711 134.912 128.334 129.687 123.271C127.06 120.723 124.852 117.335 121.5 115.674C120.075 114.968 118.345 114.574 116.761 114.903C114.934 115.283 114.071 116.604 113.046 118.015C110.665 121.275 107.2 123.656 103.342 124.801C101.705 125.257 100.82 122.767 102.455 122.285Z" fill="#A3EADF"/>
<path d="M122.54 79.8078C120.108 81.9239 118.709 84.9669 116.446 87.2479C115.232 88.4691 113.67 89.2551 112.522 90.5335C111.341 91.8583 110.105 92.7457 108.567 93.6183C106.978 94.5208 105.998 95.426 105.036 96.983C104.106 98.4849 102.784 99.6693 101.898 101.186C100.041 104.366 97.8064 108.481 98.7794 112.271C99.2 113.91 96.7098 114.795 96.2886 113.147C95.2083 108.949 96.9035 105.074 98.7976 101.397C99.2648 100.483 99.7414 99.5765 100.346 98.741C100.944 97.9237 101.7 97.2367 102.288 96.4112C103.35 94.9004 104.096 93.411 105.645 92.317C107.085 91.3011 108.808 90.6895 110.026 89.3886C110.733 88.6256 111.371 87.885 112.22 87.2623C112.942 86.7277 113.695 86.2528 114.349 85.6169C116.855 83.1516 118.402 79.9398 121.067 77.6136C122.342 76.503 123.807 78.7066 122.54 79.8078Z" fill="#A3EADF"/>
<path d="M117.481 86.5071C114.965 89.8645 112.876 93.5281 111.288 97.4135C109.607 101.499 108.951 105.727 110.11 110.052C110.548 111.69 108.058 112.566 107.619 110.928C106.343 106.179 106.847 101.529 108.62 96.9863C110.326 92.6164 112.676 88.5201 115.492 84.7717C116.511 83.405 118.501 85.1492 117.481 86.5071Z" fill="#A3EADF"/>
<path d="M100.002 99.0907C98.5535 96.3477 97.2414 93.41 95.47 90.8566C93.8355 88.4969 91.6234 86.9885 89.1557 85.6122C86.7706 84.2832 84.6692 82.7143 83.0523 80.4857C81.4842 78.3245 80.527 75.8039 80.153 73.1642C79.9145 71.4771 82.5505 71.3064 82.7884 72.9846C83.1452 75.502 84.2246 77.873 85.8662 79.8175C87.6509 81.9198 90.062 82.9823 92.3565 84.4057C94.5495 85.7654 96.4351 87.5344 97.8703 89.687C99.5226 92.1779 100.789 94.9598 102.187 97.6004C102.977 99.0998 100.802 100.598 100.002 99.0907Z" fill="#A3EADF"/>
<path d="M84.7974 78.8225C86.4009 83.9643 90.0383 88.1291 91.959 93.1345C94.0826 98.6557 93.904 104.713 93.1229 110.476C92.8934 112.16 90.3068 111.63 90.5363 109.947C91.2873 104.388 91.4123 98.5816 89.1919 93.323C87.2031 88.6135 83.8418 84.6152 82.3066 79.6982C81.7987 78.0736 84.2896 77.1979 84.7974 78.8225Z" fill="#A3EADF"/>
<path d="M103.589 94.4864C102.845 91.9954 102.183 89.4017 101.945 86.8057C101.704 84.1833 102.308 81.6447 103.011 79.1433C104.44 74.0774 106.256 69.1262 108.427 64.3362C109.125 62.7884 111.499 63.9592 110.793 65.5076C108.776 69.9694 107.059 74.5608 105.711 79.2682C105.062 81.5276 104.382 83.8509 104.544 86.2315C104.714 88.7263 105.361 91.2239 106.08 93.6107C106.57 95.2452 104.08 96.1209 103.589 94.4864Z" fill="#A3EADF"/>
<path d="M110.394 66.4173C107.879 70.0394 105.882 74.0144 102.949 77.3384C100.401 80.2302 96.202 83.7551 97.1701 88.1194C97.5291 89.763 95.0389 90.6475 94.6792 88.9952C93.5814 84.0219 96.7941 80.1405 99.9501 76.722C103.32 73.0682 105.584 68.7396 108.406 64.6907C109.378 63.2918 111.359 65.0366 110.394 66.4173Z" fill="#A3EADF"/>
<path d="M99.6165 76.1184C97.0308 70.5493 93.4454 65.4631 89.0827 61.1447C87.8809 59.9558 89.6069 57.9584 90.8181 59.1555C95.5216 63.8125 99.3248 69.2457 102.108 75.2514C102.408 75.9017 101.926 76.72 101.296 76.9394C100.572 77.1829 99.9168 76.7686 99.6165 76.1184Z" fill="#A3EADF"/>
<path d="M91.0047 59.5218C91.4524 61.6888 92.7131 63.4827 93.6244 65.4593C94.5462 67.4616 95.0572 69.6507 95.3123 71.8397C95.5567 74.0029 95.5289 76.1846 95.3856 78.3565C95.2356 80.6878 94.7583 83.1385 95.3479 85.4458C95.7685 87.0851 93.2783 87.9696 92.8571 86.3215C92.2804 84.0751 92.4746 81.8732 92.6721 79.5916C92.8627 77.337 92.9461 75.0633 92.7571 72.808C92.5742 70.6407 92.1113 68.51 91.2164 66.5147C90.3003 64.4679 88.9745 62.6255 88.5139 60.3976C88.3688 59.6926 88.5938 58.9801 89.3255 58.7096C89.9285 58.492 90.8684 58.8163 91.0047 59.5218Z" fill="#A3EADF"/>
<path d="M123.055 122.574C119.378 120.813 115.446 119.192 111.291 119.996C110.586 120.132 109.928 119.418 109.884 118.768C109.831 117.986 110.406 117.497 111.112 117.36C115.685 116.475 120.175 118.261 124.226 120.209C125.759 120.943 124.588 123.317 123.055 122.574Z" fill="#A3EADF"/>
<path d="M89.4365 122.271C88.9222 122.236 88.0128 122.36 87.5099 122.491C86.7904 122.681 86.102 122.94 85.4154 123.225C85.0724 123.372 84.7387 123.527 84.3963 123.683C84.2166 123.766 84.0376 123.857 83.8573 123.931C83.6003 124.046 84.0012 123.842 83.7291 123.993C83.4827 124.133 83.2451 124.273 83.0187 124.447C82.9017 124.544 82.893 124.544 83.0106 124.457C82.9527 124.514 82.9035 124.57 82.8544 124.626C82.7656 124.747 82.7568 124.748 82.8462 124.636C82.8065 124.7 82.7761 124.773 82.7458 124.845C82.4627 125.482 81.5822 125.772 80.9773 125.442C80.3261 125.081 80.0819 124.347 80.3802 123.674C81.0755 122.091 82.9282 121.435 84.4027 120.796C86.1856 120.022 88.0151 119.544 89.9751 119.684C90.6668 119.734 91.1595 120.618 91.0082 121.247C90.8043 122.011 90.181 122.318 89.4365 122.271Z" fill="#A3EADF"/>
<path d="M966.5 110.536H1072" stroke="#CFDAFF" stroke-width="2" stroke-linecap="round"/>
<path d="M966.5 213.025H1072" stroke="#CFDAFF" stroke-width="2" stroke-linecap="round"/>
<path d="M966.5 160.073H1072" stroke="#CFDAFF" stroke-width="2" stroke-linecap="round"/>
<path d="M966 252V69C966 64.5817 969.582 61 974 61H1064C1068.42 61 1072 64.5817 1072 69V252C1072 256.418 1068.42 260 1064 260H974C969.582 260 966 256.418 966 252Z" stroke="#CFDAFF" stroke-width="2" stroke-linecap="round"/>
<path d="M1019 62.2812V259.573" stroke="#CFDAFF" stroke-width="2" stroke-linecap="round"/>
<path d="M1106.21 105C1052.75 105 1009.41 148.262 1009.41 201.632C1009.41 215.961 1012.56 229.537 1018.16 241.773L1017.68 243.543L1016.29 257.609L1024.47 271.256L1070.8 303.646L1080.39 306.038L1101.48 298.132C1103.04 298.204 1104.61 298.252 1106.19 298.252C1159.65 298.252 1202.99 254.989 1202.99 201.62C1202.99 148.251 1159.66 105 1106.21 105Z" fill="#4964F5"/>
<path d="M1059.5 209C1069.16 209 1077 200.941 1077 191C1077 181.059 1069.16 173 1059.5 173C1049.84 173 1042 181.059 1042 191C1042 200.941 1049.84 209 1059.5 209Z" fill="white"/>
<path d="M1103.5 209C1113.16 209 1121 200.941 1121 191C1121 181.059 1113.16 173 1103.5 173C1093.84 173 1086 181.059 1086 191C1086 200.941 1093.84 209 1103.5 209Z" fill="white"/>
<path d="M1057.5 207C1064.4 207 1070 201.404 1070 194.5C1070 187.596 1064.4 182 1057.5 182C1050.6 182 1045 187.596 1045 194.5C1045 201.404 1050.6 207 1057.5 207Z" fill="#222222"/>
<path d="M1101.5 207C1108.4 207 1114 201.404 1114 194.5C1114 187.596 1108.4 182 1101.5 182C1094.6 182 1089 187.596 1089 194.5C1089 201.404 1094.6 207 1101.5 207Z" fill="#222222"/>
<path d="M1095.84 221.499C1096.38 229.202 1090.74 236.187 1082.91 236.869C1075.21 237.538 1068.08 231.941 1067.34 224.178C1067.12 221.906 1063.52 221.882 1063.74 224.178C1064.46 231.558 1069.51 237.885 1076.76 239.871C1083.98 241.856 1091.74 239.069 1096.15 233.065C1098.6 229.74 1099.72 225.578 1099.44 221.487C1099.27 219.202 1095.67 219.19 1095.84 221.499Z" fill="#222222"/>
<path d="M1034.26 228.293C1038.67 228.652 1043.12 230.314 1046.86 232.623C1051.22 235.314 1053.24 239.584 1055.84 243.806C1058.76 248.579 1062.83 252.035 1067.19 255.456C1070.99 258.434 1074.81 261.401 1078.83 264.08C1082.48 266.52 1086.32 268.625 1090.26 270.539C1092.33 271.543 1094.15 268.446 1092.07 267.441C1084.15 263.601 1077.09 258.685 1070.16 253.267C1065.59 249.691 1061.39 246.174 1058.4 241.115C1055.79 236.713 1053.44 232.575 1049.03 229.752C1044.66 226.953 1039.42 225.123 1034.25 224.705C1031.96 224.513 1031.97 228.113 1034.26 228.293Z" fill="#222222"/>
<path d="M1017.52 258.302C1013.16 259.534 1008.6 257.142 1007.14 252.86L990.721 204.753C989.212 200.328 992.734 195.807 997.395 196.166L1007.6 196.955C1010.11 197.338 1012.6 197.876 1015.03 198.558C1018.47 199.527 1021.98 200.902 1024.24 203.665C1025.44 205.124 1026.2 206.882 1026.95 208.617C1031.23 218.52 1035.52 228.436 1039.8 238.34L1040.73 241.33L1025.77 234.727L1019.28 235.469L1017.38 242.55L1016.36 256.903" fill="#FC1D53"/>
<path d="M984.489 215.279C982.967 221.606 982.237 234.931 997.596 247.011L1007.89 249.224L1013.9 245.109L1011.48 237.263L1014.11 231.749L1007.89 222.91L1013.9 219.633L1007.47 211.475L994.122 207.959L988.515 209.933C986.502 211.105 985.04 213.018 984.489 215.279Z" fill="#4964F5"/>
<path d="M1138.43 271.208C1129.1 278.349 1119.73 285.501 1109.68 291.625C1104.7 294.663 1099.54 297.45 1094.2 299.806C1091.55 300.979 1088.85 302.031 1086.1 302.952C1083.42 303.861 1080.29 304.782 1077.6 304.411C1074.46 303.981 1071.44 302.33 1068.71 300.835C1064.6 298.586 1060.67 296.003 1056.81 293.348C1048.72 287.774 1041.12 281.578 1033.16 275.861C1028.59 272.584 1023.72 269.187 1021.46 263.84C1021.3 263.433 1021.14 263.003 1020.97 262.584C1023.3 264.641 1026 266.292 1028.95 267.404C1029.86 267.751 1030.92 267.022 1031.17 266.149C1031.44 265.144 1030.82 264.283 1029.91 263.936C1029.73 263.876 1029.56 263.804 1029.38 263.732C1029.12 263.625 1029.36 263.732 1029.22 263.661C1028.93 263.541 1028.65 263.41 1028.37 263.278C1027.78 262.991 1027.2 262.68 1026.64 262.345C1025.47 261.651 1024.59 261.017 1023.68 260.228C1021.82 258.625 1020.48 257.01 1019.28 255.013C1019.18 253.47 1019.22 251.951 1019.48 250.48C1019.64 250.647 1019.79 250.827 1019.95 250.994C1023.75 254.618 1028.87 256.149 1033.8 257.525C1036.03 258.147 1036.99 254.69 1034.76 254.068C1030.15 252.788 1025.23 251.449 1021.86 247.813C1020.36 246.198 1019.33 244.129 1019.31 241.892C1019.28 239.871 1020.09 237.43 1022.05 236.51C1024.05 235.565 1027.02 236.88 1028.94 237.622C1031.14 238.471 1033.24 239.56 1035.34 240.648C1039.51 242.801 1043.72 245.026 1048.4 245.827C1050.66 246.21 1051.63 242.753 1049.36 242.37C1040.54 240.863 1033.62 233.95 1024.75 232.742C1020.16 232.12 1016.6 235.505 1015.88 239.906C1015.47 242.406 1015.94 244.846 1017.02 247.023C1016.71 247.226 1016.46 247.549 1016.32 248.004C1015.73 250.157 1015.57 252.441 1015.7 254.726C1015.52 255.216 1015.55 255.778 1015.82 256.257C1015.83 256.269 1015.83 256.281 1015.84 256.293C1016.08 258.362 1016.53 260.407 1017.11 262.321C1018.65 267.333 1021.45 271.208 1025.48 274.545C1029.66 278.014 1034.21 281.076 1038.52 284.365C1042.62 287.499 1046.74 290.597 1050.95 293.599C1055.06 296.541 1059.24 299.412 1063.57 302.019C1066.96 304.065 1070.5 306.062 1074.29 307.282C1079.38 308.933 1084.44 307.402 1089.29 305.631C1095.08 303.514 1100.67 300.883 1106.06 297.893C1118.2 291.159 1129.26 282.726 1140.24 274.318C1142.07 272.93 1140.28 269.809 1138.43 271.208Z" fill="#222222"/>
<path d="M995.415 224.441C998.231 224.848 1001.05 225.242 1003.86 225.649C1005.86 225.936 1007.96 226.367 1009.94 225.721C1014.36 224.273 1015.89 219.059 1014.05 215.076C1011.88 210.411 1006.89 209.239 1002.27 208.461C997.488 207.66 992.133 207.134 987.891 210.004C984.045 212.588 982.536 216.882 982.464 221.415C982.332 230.409 986.573 239.595 993.894 244.918C996.23 246.616 998.926 247.585 1001.6 248.65C1004.21 249.702 1007.22 250.432 1010.02 249.738C1015.21 248.446 1017.39 242.406 1014.68 237.957C1013.48 235.983 1010.37 237.789 1011.58 239.763C1012.44 241.186 1012.62 242.897 1011.72 244.356C1010.68 246.066 1008.79 246.557 1006.89 246.377C1004.95 246.198 1003.14 245.432 1001.36 244.691C999.357 243.853 997.464 243.112 995.715 241.82C990.012 237.598 986.693 230.577 986.142 223.592C985.855 219.932 986.418 215.877 989.018 213.604C988.562 213.999 988.778 213.796 988.91 213.7C989.305 213.401 989.688 213.102 990.12 212.839C991.809 211.81 993.81 211.427 995.763 211.392C997.824 211.356 999.848 211.667 1001.87 212.014C1003.86 212.36 1005.98 212.624 1007.79 213.568C1009.34 214.382 1010.68 215.733 1011.13 217.456C1011.61 219.226 1010.92 221.487 1009.09 222.228C1007.55 222.862 1005.5 222.288 1003.95 222.061C1001.42 221.702 998.902 221.343 996.374 220.984C995.403 220.841 994.457 221.223 994.157 222.24C993.918 223.077 994.457 224.309 995.415 224.441Z" fill="#222222"/>
<path d="M1008.07 226.619C1010.02 227.683 1011.4 229.477 1011.93 231.63C1012.39 233.52 1012.18 235.972 1010.14 236.498C1008.19 237.001 1005.72 236.319 1003.77 235.697C1001.78 235.063 1000.02 234.106 999.165 232.192C998.77 231.307 997.476 231.092 996.709 231.546C995.799 232.085 995.667 233.113 996.062 233.998C997.979 238.292 1003.67 239.859 1007.97 240.182C1010.52 240.374 1013.14 239.68 1014.62 237.467C1016.05 235.362 1015.96 232.3 1015.2 229.968C1014.3 227.241 1012.42 224.884 1009.89 223.497C1007.85 222.408 1006.03 225.506 1008.07 226.619Z" fill="#222222"/>
<path d="M1022.82 215.064C1022.71 214.119 1022.55 213.186 1022.35 212.265C1021.99 210.686 1021.53 208.784 1020.25 207.684C1019.56 207.086 1018.62 206.751 1017.71 206.99C1016.92 207.205 1016.26 207.755 1015.89 208.473C1015.2 209.825 1015.62 211.463 1015.95 212.863C1016.24 214.095 1016.67 215.291 1017.16 216.463C1017.72 217.779 1018.49 219.393 1020.19 219.357C1020.92 219.346 1021.44 219.023 1021.81 218.556C1022.43 218.281 1022.79 217.671 1022.89 216.929C1022.95 216.307 1022.89 215.674 1022.82 215.064ZM1019.09 210.112C1019.09 210.1 1019.09 210.1 1019.09 210.088C1019.13 210.052 1019.15 210.052 1019.09 210.112ZM1019.09 210.028C1019.09 209.98 1019.09 209.944 1019.1 209.932C1019.1 209.968 1019.1 209.992 1019.09 210.028ZM1017.9 210.351C1017.89 210.351 1017.89 210.351 1017.9 210.351C1017.87 210.303 1017.87 210.303 1017.9 210.351ZM1017.82 210.303C1017.82 210.303 1017.83 210.315 1017.83 210.327C1017.82 210.315 1017.81 210.303 1017.82 210.303ZM1017.92 210.411C1017.93 210.423 1017.93 210.423 1017.94 210.435C1017.95 210.459 1017.96 210.471 1017.98 210.494C1017.96 210.471 1017.94 210.447 1017.92 210.411Z" fill="#222222"/>
<path d="M995.919 157.724H958.778C951.17 157.724 945 163.883 945 171.479C945 179.074 951.17 185.234 958.778 185.234H981.351C982.549 188.068 984.346 190.664 986.586 192.769C986.994 193.152 987.641 192.757 987.533 192.207C987.054 189.97 987.209 187.59 988 185.437C988.024 185.365 988.048 185.293 988.072 185.222H995.931C1003.54 185.222 1009.71 179.062 1009.71 171.467C1009.7 163.883 1003.53 157.724 995.919 157.724Z" fill="#E6E5E5"/>
<path d="M994.245 172.205C993.851 173.548 993.129 176.342 991.133 176.143C989.08 175.934 988.883 173.194 988.92 171.724C988.958 170.182 986.567 169.882 986.155 171.361C985.864 172.414 985.414 173.484 984.683 174.328C983.53 175.662 983.071 174.201 983.221 173.067C983.361 172.024 983.717 170.871 984.495 170.1C985.105 169.501 986.211 169.129 986.933 169.764C988.273 170.935 990.223 169.075 988.92 167.841C986.136 165.201 982.114 166.761 980.024 169.383C978.833 170.88 978.102 172.631 977.052 174.21C976.902 174.428 975.712 176.206 975.28 175.934C975.29 175.934 975.14 174.618 975.13 174.564C975.046 174.02 974.99 173.466 974.943 172.913C975.477 172.132 975.984 171.343 976.48 170.536C977.483 168.93 978.833 167.269 979.105 165.373C979.405 163.332 978.008 161.009 975.674 161C973.012 160.991 972.468 163.731 972.224 165.727C971.962 167.859 971.915 170.018 972.065 172.16C971.981 172.278 971.906 172.396 971.821 172.504C971.803 172.523 971.784 172.55 971.774 172.568C971.699 172.323 971.606 172.069 971.474 171.824C970.321 169.646 967.5 169.365 965.372 170.236C964.519 170.581 963.759 171.098 963.103 171.715C962.944 169.574 962.841 167.433 962.813 165.282C962.784 163.531 959.972 163.531 960 165.282C960.056 168.93 960.291 172.568 960.713 176.188C960.872 177.585 963.113 178.184 963.478 176.551C963.787 175.145 964.537 173.893 965.794 173.085C966.637 172.541 968.503 171.951 969.028 173.185C969.44 174.156 968.531 175.299 967.893 175.979C967.443 176.469 966.937 176.878 966.375 177.104C965.869 177.222 965.344 177.268 964.8 177.186C963.066 176.95 962.259 179.318 964.05 179.808C965.475 180.198 966.853 179.971 968.043 179.327C969.778 178.647 971.278 177.395 972.571 175.952C972.974 177.576 973.827 179.037 975.965 178.529C978.112 178.021 979.34 175.952 980.371 174.065C980.568 176.188 982.358 178.184 984.73 177.513C985.611 177.268 986.333 176.687 986.933 175.97C987.636 177.413 988.826 178.538 990.692 178.783C994.367 179.273 996.11 175.734 996.935 172.904C997.451 171.234 994.732 170.517 994.245 172.205ZM975.524 163.822C976.143 163.386 976.405 164.638 976.358 165.01C976.237 166.008 975.524 167.033 974.868 167.977C974.896 167.369 974.943 166.77 975.009 166.172C975.055 165.709 975.055 164.157 975.524 163.822Z" fill="#222222"/>
<path d="M317.998 195.544C317.998 249.969 273.889 294.088 219.474 294.088C190.255 294.088 164.011 281.366 145.962 261.155C145.523 260.654 145.035 259.703 144.34 259.886C127.694 264.387 120.352 260.167 116.901 253.592C112.365 244.956 108.804 236.04 122.56 213.377C123.084 212.523 122.218 211.401 122.06 210.413C121.34 205.558 120.962 200.594 120.962 195.544C120.962 141.119 165.072 97 219.486 97C273.901 97 317.998 141.119 317.998 195.544Z" fill="#4964F5"/>
<path d="M276.208 177.999C284.975 177.999 292.083 170.889 292.083 162.12C292.083 153.35 284.975 146.241 276.208 146.241C267.44 146.241 260.332 153.35 260.332 162.12C260.332 170.889 267.44 177.999 276.208 177.999Z" fill="white"/>
<path d="M278.736 171.438C284.579 171.438 289.315 166.7 289.315 160.856C289.315 155.012 284.579 150.274 278.736 150.274C272.893 150.274 268.156 155.012 268.156 160.856C268.156 166.7 272.893 171.438 278.736 171.438Z" fill="#222222"/>
<path d="M234.876 180.757C243.643 180.757 250.751 173.648 250.751 164.879C250.751 156.109 243.643 149 234.876 149C226.108 149 219 156.109 219 164.879C219 173.648 226.108 180.757 234.876 180.757Z" fill="white"/>
<path d="M237.404 174.196C243.247 174.196 247.983 169.459 247.983 163.615C247.983 157.771 243.247 153.033 237.404 153.033C231.561 153.033 226.824 157.771 226.824 163.615C226.824 169.459 231.561 174.196 237.404 174.196Z" fill="#222222"/>
<path d="M273.183 191.712C273.253 199.38 267.2 205.958 259.355 206.155C251.629 206.348 244.859 200.364 244.589 192.625C244.512 190.359 240.917 190.115 241.004 192.405C241.273 199.764 245.92 206.343 253.029 208.754C260.115 211.164 268.029 208.876 272.791 203.195C275.431 200.049 276.808 195.992 276.769 191.92C276.741 189.646 273.156 189.414 273.183 191.712Z" fill="#222222"/>
<path d="M136.34 192.202C133.986 193.141 132.206 195.142 130.632 197.069C128.23 199.996 126.12 203.168 124.132 206.388C119.84 213.353 115.986 220.683 112.925 228.27C111.754 231.161 110.779 234.052 110.401 237.15C109.791 242.102 110.389 247.274 112.328 251.872C114.218 256.386 117.498 260.338 121.998 262.423C127.596 265.021 133.962 264.863 139.937 264.058C152.998 262.301 165.315 256.325 174.827 247.189C176.535 245.554 173.937 242.968 172.242 244.603C164.449 252.092 154.645 257.3 144.096 259.63C138.73 260.813 132.767 261.569 127.328 260.374C122.535 259.325 118.767 256.434 116.462 252.116C112.889 245.432 113.254 237.589 115.876 230.685C118.498 223.794 121.986 217.17 125.718 210.828C127.767 207.339 129.925 203.887 132.388 200.679C133.267 199.521 134.206 198.398 135.242 197.374C135.62 196.996 136.254 196.422 136.523 196.215C136.486 196.239 136.888 195.971 137.01 195.898C137.132 195.825 137.779 195.532 137.315 195.715C139.474 194.873 138.523 191.324 136.34 192.202Z" fill="#222222"/>
<path d="M148.341 228.916C148.561 228.66 147.927 229.209 148.219 229.014C148.427 228.855 148.646 228.709 148.853 228.55C149.573 228.038 150.305 227.55 151.036 227.062C153.39 225.489 155.78 223.976 158.195 222.513C164.805 218.512 171.646 214.718 178.853 211.901C182.183 210.596 185.683 209.413 189.243 208.949C193.268 208.425 197.512 209.23 201.353 210.425C208.097 212.523 213.365 217.121 215.195 224.05C216.146 227.648 215.634 231.271 214.756 234.918C214.256 237.003 213.658 239.114 212.756 241.065C212.426 241.785 212.061 242.541 211.585 243.175C211.5 243.285 211.195 243.553 211.073 243.724C211.134 243.627 211.036 243.688 211.304 243.663C208.963 243.797 208.951 247.457 211.304 247.322C214.756 247.127 216.268 242.407 217.182 239.723C218.5 235.845 219.512 231.514 219.414 227.404C219.243 220.256 214.865 213.462 208.865 209.791C204.378 207.046 199.146 205.826 193.963 205.278C190.341 204.899 186.731 205.534 183.256 206.534C175.048 208.9 167.305 212.962 159.939 217.219C156.573 219.158 153.268 221.195 150.036 223.33C148.719 224.196 146.78 225.111 145.744 226.331C144.231 228.111 146.817 230.709 148.341 228.916Z" fill="#222222"/>
<path d="M203.365 225.892C205.194 227.441 205.828 229.734 206.389 231.966C207.133 234.893 207.657 237.87 207.913 240.882C208.121 243.285 207.877 245.42 205.962 247.079C203.974 248.811 201.218 248.896 198.816 248.067C196.584 247.298 195.621 250.836 197.84 251.592C204.243 253.8 211.548 249.787 211.645 242.675C211.694 239.04 210.926 235.223 210.084 231.71C209.352 228.66 208.413 225.404 205.938 223.306C204.17 221.793 201.572 224.367 203.365 225.892Z" fill="#222222"/>
<path d="M193.987 229.49C195.963 233.247 196.585 237.297 197 241.481C197.195 243.493 197.414 245.53 196.683 247.457C196.073 249.055 194.951 250.458 193.622 251.519C190.585 253.922 186.426 254.422 182.683 253.898C180.792 253.629 179.085 253.142 177.841 251.617C176.768 250.312 176.109 248.653 175.5 247.092C174.646 244.92 171.109 245.872 171.975 248.067C173.183 251.141 174.609 254.495 177.646 256.179C181 258.033 185.707 258.069 189.378 257.337C192.939 256.63 196.195 254.715 198.39 251.812C200.853 248.555 201.024 244.933 200.622 240.993C200.146 236.309 199.378 231.857 197.17 227.649C196.048 225.563 192.89 227.405 193.987 229.49Z" fill="#222222"/>
<path d="M168.387 236.711C168.423 240.895 169.984 245.81 173.789 248.018C178.289 250.628 184.07 249.506 187.972 246.347C188.74 245.725 188.618 244.408 187.972 243.761C187.216 243.005 186.155 243.139 185.387 243.761C182.801 245.847 178.46 246.628 175.411 244.725C174.253 243.993 173.362 242.566 172.875 241.212C172.289 239.577 172.057 238.284 172.045 236.711C172.033 234.357 168.375 234.357 168.387 236.711Z" fill="#222222"/>
<path d="M165.607 205.229C164.948 205.693 164.57 206.412 164.168 207.095C163.582 208.071 163.009 209.071 162.448 210.059C161.192 212.255 159.948 214.463 158.717 216.683C158.424 217.207 158.131 217.732 157.839 218.256C157.363 219.122 157.631 220.256 158.497 220.757C159.339 221.244 160.521 220.964 160.997 220.098C162.973 216.548 164.936 212.999 166.997 209.498C167.229 209.108 167.46 208.718 167.704 208.327C167.79 208.193 167.875 208.071 167.948 207.949C167.973 207.913 168.009 207.876 168.034 207.839C167.924 208.108 167.68 208.242 167.448 208.413C168.253 207.839 168.631 206.815 168.107 205.912C167.643 205.083 166.412 204.644 165.607 205.229Z" fill="#222222"/>
<path d="M239.585 261.497L150.024 267.315C146.073 267.571 142.829 270.559 142.244 274.475L133.963 330.352C133.183 335.645 137.475 340.329 142.829 339.988L249.987 333.145C254.975 332.828 258.585 328.266 257.743 323.338L248.426 268.486C247.695 264.241 243.877 261.216 239.585 261.497Z" fill="#FE9AB2"/>
<path d="M172.51 251.079C172.279 251.653 172.145 252.287 171.974 252.885C171.645 254.117 171.328 255.361 171.047 256.605C170.413 259.349 169.754 262.228 169.742 265.058C169.73 267.412 173.389 267.412 173.401 265.058C173.401 264.472 173.45 263.899 173.51 263.326C173.523 263.179 173.547 263.021 173.559 262.874C173.608 262.435 173.51 263.143 173.571 262.74C173.62 262.387 173.681 262.033 173.742 261.691C173.986 260.252 174.279 258.837 174.608 257.422C175.01 255.654 175.352 253.751 176.035 252.055C176.401 251.14 175.632 250.043 174.754 249.799C173.718 249.506 172.876 250.152 172.51 251.079Z" fill="#222222"/>
<path d="M214.207 245.213C216.268 246.969 216.975 249.677 217.743 252.166C218.731 255.313 219.597 258.484 220.378 261.692C220.926 263.985 224.463 263.009 223.902 260.716C223.073 257.301 222.134 253.91 221.073 250.555C220.158 247.689 219.158 244.64 216.792 242.627C216.036 241.993 214.939 241.883 214.207 242.627C213.548 243.274 213.451 244.566 214.207 245.213Z" fill="#222222"/>
<path d="M161.706 269.596C164.938 289.892 166.999 310.409 168.17 330.925C168.255 332.364 168.328 333.816 168.389 335.255C168.487 337.597 172.145 337.609 172.048 335.255C171.426 320.301 170.023 305.334 168.255 290.478C167.389 283.171 166.389 275.89 165.231 268.632C164.865 266.302 161.34 267.29 161.706 269.596Z" fill="#222222"/>
<path d="M151.62 277.841C150.827 291.344 150.9 304.932 150.864 318.459C150.864 320.46 150.852 322.448 150.852 324.448C150.852 326.802 154.51 326.802 154.51 324.448C154.51 312.421 154.571 300.395 154.876 288.38C154.961 284.867 155.071 281.354 155.278 277.841C155.413 275.499 151.754 275.499 151.62 277.841Z" fill="#222222"/>
<path d="M162.071 331.254C160.742 329.742 159.181 328.437 157.632 327.156C156.522 326.241 155.388 325.143 154.12 324.46C152.876 323.777 151.51 324.68 150.388 325.229C148.766 326.022 147.169 326.875 145.608 327.79C143.864 328.803 142.047 329.864 140.583 331.266C138.876 332.889 141.461 335.475 143.169 333.852C144.364 332.718 146.315 331.596 148.047 330.608C149.729 329.644 151.449 328.754 153.205 327.937C153.339 327.876 153.754 327.754 153.205 327.937C153.29 327.912 153.388 327.839 153.473 327.839C153.498 327.827 153.534 327.815 153.559 327.815C153.12 327.924 152.693 327.863 152.278 327.644C152.315 327.705 152.461 327.754 152.51 327.79C153.217 328.388 153.473 328.498 154.229 329.107C156.059 330.583 157.912 332.096 159.461 333.865C161.047 335.609 163.62 333.023 162.071 331.254Z" fill="#222222"/>
<path d="M111.021 273.669C103.436 269.631 97.9726 263.02 95.7775 254.665C93.3873 245.578 94.7165 235.942 97.4238 227.098C98.119 224.842 94.5702 223.915 93.8873 226.171C89.5214 240.43 89.0214 257.336 99.3872 269.204C102.143 272.351 105.546 274.888 109.229 276.852C111.29 277.95 113.107 274.779 111.021 273.669Z" fill="#222222"/>
<path d="M91.4858 272.108C85.5712 268.949 81.3273 263.826 79.62 257.3C77.7542 250.201 78.8151 242.687 80.9249 235.771C81.6078 233.515 78.0712 232.588 77.3883 234.844C75.0591 242.468 74.0225 250.835 76.181 258.617C78.1932 265.887 83.0468 271.754 89.681 275.291C91.7419 276.401 93.5712 273.23 91.4858 272.108Z" fill="#222222"/>
</g>
<defs>
<clipPath id="clip0_1643_21083">
<rect width="1312" height="408" fill="white"/>
</clipPath>
</defs>
</svg>
