<svg width="186" height="126" viewBox="0 0 186 126" fill="none" xmlns="http://www.w3.org/2000/svg">
<path d="M149.149 68.0606L149.589 68.5596C147.013 70.8861 144.319 73.072 141.52 75.1103C138.721 77.1557 136.375 78.6317 134.497 79.5314C134.344 79.6227 134.127 79.693 133.827 79.7422C133.527 79.7985 133.178 79.8125 132.78 79.8125C132.082 79.8125 131.531 79.7774 131.105 79.7001C130.686 79.6368 130.372 79.5525 130.176 79.4541C129.387 78.9339 128.731 78.0975 128.208 76.9589C127.691 75.8202 127.405 74.6746 127.356 73.5359C127.244 72.2497 127.531 70.7244 128.173 68.9392C128.815 67.1539 129.883 65.0523 131.37 62.6344C132.759 60.3501 134.595 57.4402 136.878 53.8978C139.153 50.3553 140.403 48.4435 140.598 48.1624H134.414C134.127 48.1202 133.96 48.0148 133.932 47.8812C133.904 47.7336 134.064 47.5931 134.414 47.4525C136.501 46.5458 138.008 45.871 138.951 45.4142C139.9 44.9714 140.787 44.5286 141.638 44.1068C143.774 42.9612 145.987 41.696 148.291 40.2903C150.601 38.8916 152.765 37.4929 154.811 36.1152C155.097 35.9325 155.355 35.8763 155.551 35.9817C155.746 36.0731 155.746 36.2347 155.551 36.4807C154.608 37.9427 153.764 39.2641 153.017 40.4308C152.277 41.5976 151.607 42.6519 151.013 43.6078C152.598 43.6078 154.162 43.5797 155.697 43.5375C157.233 43.4953 158.95 43.4391 160.828 43.3899C161.17 43.3477 161.414 43.3196 161.533 43.3196H161.798C161.896 43.3196 161.973 43.3548 162.022 43.4321C162.064 43.5024 162.064 43.5867 162.022 43.6851C161.966 43.8679 161.826 44.156 161.568 44.5426C161.324 44.9151 160.926 45.3861 160.381 45.9624C159.732 46.7707 159.146 47.3822 158.594 47.7828C158.05 48.1835 157.582 48.4084 157.184 48.4576C155.097 48.3662 153.387 48.303 152.053 48.2819C150.713 48.2538 149.352 48.2467 147.956 48.2467C145.233 52.5272 143.202 55.7393 141.862 57.9041C140.515 60.069 139.307 62.0721 138.211 63.9277C136.926 66.1136 136.061 67.8567 135.607 69.1641C135.167 70.4714 134.965 71.7647 135.014 73.0509C135.07 73.9084 135.3 74.6324 135.726 75.2228C136.145 75.8132 136.703 76.1857 137.401 76.3333C138.441 75.996 140.2 74.9557 142.678 73.2267C145.15 71.4906 147.314 69.7756 149.149 68.0606Z" fill="white"/>
<path d="M125.597 44.2334C124.711 42.9612 122.84 43.9031 122.044 44.7324C121.123 45.6883 120.104 46.595 118.882 47.1925C117.66 47.7829 116.041 48.0851 114.01 48.0851C112.962 48.0851 111.915 47.9375 110.847 47.6564C109.779 47.3752 108.676 46.9465 107.539 46.3701C106.547 45.85 105.403 45.1612 104.111 44.3037C101.926 42.8488 100.09 41.9561 97.4587 43.1018C95.3505 44.0296 93.6193 45.7586 91.9929 47.2276C89.7032 49.2659 87.3717 51.5081 84.9983 53.9259L85.5917 54.2774C88.8097 51.2832 90.7713 49.5471 91.4693 49.041C92.1674 48.542 92.7607 48.2187 93.2494 48.0781C93.745 48.0359 94.3174 48.1203 94.9666 48.3592C95.6088 48.5982 96.6768 49.1394 98.1637 49.9969C100.041 51.1426 101.507 51.8876 102.547 52.2461C103.595 52.5975 104.551 52.7803 105.451 52.7803C106.687 52.7803 108.209 52.4499 109.989 51.8173C111.776 51.1777 113.786 50.2429 116.02 49.0059C116.118 49.0059 116.181 49.034 116.208 49.0762C116.229 49.1183 116.243 49.1956 116.243 49.287C114.561 50.5241 112.962 51.8525 111.371 53.202C108.991 55.0927 106.338 57.2224 104.097 58.9936C100.719 61.6575 97.1306 64.0964 93.5775 66.5495C91.4344 68.0255 89.2216 69.4172 87.0716 70.8721C85.0193 72.2708 83.1415 73.9225 81.0543 75.265C80.1538 75.8484 78.1713 76.6005 77.5361 77.4509C76.8939 78.3084 76.8032 78.9551 77.2709 79.4049C77.7386 79.8618 79.6024 79.7704 80.3423 79.1589C82.0805 77.2541 83.6441 75.9117 85.0263 75.1244C86.4154 74.3443 88.007 73.9507 89.787 73.9507C90.6247 73.9507 91.6159 74.1123 92.7258 74.4497C97.7518 75.9398 102.31 78.8918 107.56 79.6861C108.041 79.7563 108.488 79.7985 108.942 79.7985C109.34 79.7985 109.717 79.7634 110.086 79.6861C110.463 79.6158 110.722 79.5314 110.875 79.44C115.133 76.2069 119.112 72.6222 123.133 69.1219C123.468 68.8338 123.692 68.1309 123.231 68.1028C121.234 69.8389 119.154 71.4976 116.997 73.051C116.327 73.543 115.587 74.035 114.757 74.0491C114.024 74.0561 113.346 73.7117 112.704 73.3813C107.336 70.6612 99.832 67.421 93.8148 69.9865C91.9719 70.7667 89.7172 71.9264 87.0436 73.4446C86.9459 73.4446 86.8831 73.4165 86.8552 73.3743C86.8272 73.3321 86.8482 73.2548 86.8901 73.1634C87.1344 72.9877 87.3997 72.819 87.6649 72.6152C91.7136 69.9021 100.998 63.6255 105.221 60.2939C109.333 57.0537 114.882 52.5975 117.367 50.5944C117.849 50.2499 118.289 49.9407 118.687 49.6736C120.795 48.2819 122.917 46.9254 125.123 45.6672C125.311 45.5688 125.493 45.4564 125.632 45.2947C125.891 44.9995 125.772 44.5637 125.597 44.2334Z" fill="white"/>
<path d="M100.209 26.6406C100.062 26.4789 99.839 26.3665 99.5388 26.3243C98.7011 26.2329 97.4586 26.1415 95.8251 26.0783C94.1917 26.008 92.5512 25.9658 90.9178 25.9658C87.3507 25.9658 83.8255 26.3875 80.3492 27.2099C76.8729 28.0323 73.2569 29.3396 69.4874 31.0968C64.978 33.1843 61.02 35.6092 57.6275 38.3714C54.2279 41.1196 51.5055 44.0928 49.4741 47.2838C48.9297 48.0921 48.106 49.3994 47.017 51.1917L46.9751 51.2199C46.1793 52.5694 45.3137 54.0524 44.3714 55.662C40.6507 61.9808 37.9422 66.5353 36.2599 69.3398C34.5706 72.1513 33.1885 74.4286 32.0925 76.1857C31.6946 77.1838 31.7295 77.964 32.2042 78.5052C32.6859 79.0534 33.5026 79.3275 34.6963 79.3275C34.9406 79.3275 35.1919 79.3205 35.4362 79.2924C35.6875 79.2643 36.2878 79.2081 37.2232 79.1096C37.321 78.9761 37.5234 78.6739 37.8166 78.217C38.1168 77.7742 38.731 76.9518 39.6664 75.757C40.3156 74.8995 40.7903 74.2739 41.0835 73.8733C41.3837 73.4656 41.8234 72.833 41.8234 72.833C41.8234 72.833 43.1148 75.5742 43.4988 76.1857C44.2597 77.3876 45.0415 78.695 46.3818 79.3978C47.1985 79.8266 48.1269 80.0374 49.167 80.0374C50.5073 80.0374 52.0709 79.7211 53.8579 79.0745C55.638 78.4349 58.2487 77.3806 61.027 75.9046C64.6499 73.6765 67.7912 71.3641 70.4368 68.9884C73.0964 66.6127 75.1627 64.2159 76.6495 61.791C78.0386 59.4645 79.002 57.0115 79.5115 54.446C80.0351 51.8876 80.0002 49.6525 79.3998 47.7477C79.002 46.4193 78.3039 45.2877 77.3127 44.3599C76.3284 43.4321 73.941 42.9471 72.8451 42.9049C71.7073 43.0947 70.0947 43.9241 68.0076 45.4001C65.9273 46.8761 63.6447 48.7528 61.1666 51.0371C58.2348 53.6518 49.0344 61.7207 47.003 63.8153C47.2543 63.3443 48.8319 60.6664 53.1669 53.2793C53.3274 53.0051 53.488 52.7381 53.6415 52.471C55.0726 50.0601 56.2593 48.064 57.1947 46.5036C59.7286 42.2794 62.0322 38.9408 64.1194 36.4948C66.1996 34.0488 68.0844 32.4181 69.7667 31.6098C70.6602 31.1389 71.6025 30.8086 72.5938 30.6188C73.585 30.429 74.8974 30.3377 76.5378 30.3377C77.7315 30.3377 79.0718 30.422 80.5586 30.5837C82.0385 30.7453 84.2444 31.0968 87.1762 31.6098C89.6054 32.0456 91.3506 32.3197 92.4186 32.4392C93.4866 32.5587 94.4151 32.6149 95.2108 32.6149C96.0485 32.6149 97.1375 31.9472 98.4498 30.6188C99.7622 29.2904 100.418 28.1728 100.418 27.2661C100.439 27.0131 100.363 26.8163 100.209 26.6406ZM52.6084 60.7578C55.8823 57.4965 59.5471 54.4249 62.9746 51.5221C64.3148 50.3834 65.5713 49.4557 66.7371 48.7458C67.9029 48.0359 68.7824 47.6563 69.3757 47.6071C70.1157 47.8461 70.6602 48.1624 71.0092 48.563C71.3513 48.9707 71.6235 49.6033 71.8259 50.4537C72.2238 51.9719 72.161 54.1227 71.6444 56.9061C71.1209 59.6824 70.2134 62.4306 68.922 65.1366C67.7842 67.5123 66.5975 69.4944 65.3549 71.0899C63.4562 73.5359 60.6431 75.2509 57.6414 76.1787C56.4826 76.5372 55.2401 76.7902 54.0185 76.6004C52.5107 76.3755 51.1285 75.7007 49.9349 74.8011C48.2456 73.5429 45.6139 71.6592 44.0782 69.143C45.8094 66.8024 49.3345 64.0121 52.6084 60.7578Z" fill="white"/>
<path d="M186 57.1803C185.979 61.7559 185.114 66.3386 183.522 70.5207C181.937 74.7379 179.662 78.5404 177.044 81.9423C174.412 85.3582 171.425 88.3665 168.221 91.0233C165.01 93.6802 161.61 96.0207 158.099 98.0801C151.055 102.185 143.593 105.235 135.977 107.534C132.173 108.7 128.32 109.642 124.452 110.444C120.571 111.238 116.69 111.891 112.774 112.355C97.1305 114.232 81.2846 113.874 65.7249 111.132C61.8437 110.401 57.9695 109.586 54.1372 108.539L52.7062 108.138L52.3432 108.04L52.1617 107.984C52.1268 107.962 52.1338 107.977 52.1268 107.977C52.1198 107.977 52.1198 107.977 52.1059 107.977C52.05 107.969 51.9174 107.955 51.7359 107.977C51.3938 108.005 50.975 108.096 50.5492 108.201C50.1234 108.321 49.6836 108.454 49.2508 108.623C47.4847 109.249 45.7186 110.071 43.9735 110.936C40.4692 112.665 37.0139 114.583 33.5864 116.573C30.1589 118.548 26.7524 120.607 23.4087 122.709L18.5712 125.745L20.9725 120.242C22.2709 117.268 23.5204 114.204 24.6722 111.139C25.8101 108.082 26.906 104.968 27.6739 101.89C27.8554 101.124 28.0159 100.357 28.1276 99.6335C28.1904 99.268 28.2253 98.9236 28.2463 98.5932C28.2672 98.2769 28.2532 97.9677 28.2253 97.792C28.2183 97.7006 28.1904 97.6584 28.1974 97.6795C28.2044 97.7006 28.2532 97.8271 28.4068 97.9817C28.4487 98.0169 28.4906 98.045 28.5325 98.0801C28.5674 98.1012 28.5744 98.1083 28.5395 98.0801L28.4766 98.045L28.2114 97.8904L27.6878 97.5811C26.9898 97.1734 26.3057 96.7377 25.6146 96.2949C22.8922 94.5307 20.2396 92.5978 17.7266 90.44C16.4631 89.3646 15.2345 88.24 14.0548 87.0451C12.8681 85.8502 11.7302 84.6062 10.6552 83.2848C8.48428 80.6631 6.54368 77.7884 4.93117 74.6676C3.3396 71.5399 2.10404 68.145 1.37806 64.6026C0.652084 61.0531 0.449647 57.3771 0.791695 53.7643C1.11978 50.1446 2.01329 46.6021 3.32564 43.2986C4.61704 39.9741 6.36917 36.9306 8.35165 34.1121C10.3481 31.3147 12.5819 28.7633 14.9832 26.4368C17.3985 24.1244 19.9603 22.0509 22.6269 20.1602C25.2935 18.2695 28.0508 16.5686 30.8919 15.0363C33.719 13.5041 36.616 12.1335 39.5478 10.9035C42.4866 9.67343 45.4604 8.58399 48.476 7.62809C51.4776 6.66516 54.5141 5.80766 57.5716 5.06965C63.6936 3.62174 69.8644 2.53932 76.0841 1.89971C79.1835 1.56937 82.3038 1.31633 85.4101 1.18279C88.5304 1.02113 91.6438 0.971928 94.7641 0.993014C100.998 1.03519 107.238 1.47799 113.437 2.23006C116.536 2.62367 119.629 3.11567 122.7 3.71311C125.786 4.31055 128.85 4.9853 131.894 5.80063C137.967 7.43128 143.977 9.4696 149.799 12.1054C155.6 14.7622 161.254 17.9602 166.441 22.0017C171.627 26.0221 176.395 30.9 180.039 36.8252C181.854 39.7913 183.341 43.0315 184.381 46.4615C185.428 49.9126 185.979 53.5464 186 57.1803ZM181.03 57.1803C181.03 54.1017 180.576 51.0442 179.732 48.0852C178.894 45.1261 177.609 42.2935 176.081 39.6086C172.981 34.2457 168.702 29.6138 163.983 25.6074C159.23 21.6152 153.966 18.2554 148.466 15.4018C142.944 12.5833 137.185 10.2428 131.272 8.42936C128.32 7.5086 125.332 6.7003 122.323 6.01852C119.308 5.33674 116.264 4.77444 113.221 4.31055C107.12 3.36168 100.949 2.91184 94.7711 2.83453C82.4294 2.70098 70.0668 4.23323 58.165 7.607C52.2175 9.30091 46.3888 11.4447 40.8043 14.1226C35.2059 16.7865 29.8658 19.9986 24.9514 23.787C22.5013 25.6918 20.1628 27.7371 18.0128 29.9793C15.8418 32.1933 13.8663 34.5971 12.1281 37.1485C11.2695 38.4418 10.4737 39.7702 9.76172 41.1338C9.04971 42.4974 8.39353 43.9031 7.86301 45.351C6.78102 48.2257 6.0341 51.241 5.77582 54.2985C5.51056 57.356 5.65715 60.4486 6.27144 63.4639C6.88573 66.4652 7.89093 69.3961 9.2661 72.1584C10.6203 74.9277 12.2957 77.5494 14.2083 79.9743C15.1647 81.1973 16.1769 82.357 17.2449 83.4886C17.7684 84.0509 18.3199 84.5991 18.8644 85.1544C19.4158 85.6886 19.9673 86.2368 20.5467 86.757C22.8224 88.8585 25.2656 90.7703 27.8065 92.5556C28.4417 92.9914 29.07 93.4482 29.7261 93.8629L30.2148 94.1792L30.4591 94.3409L30.6476 94.4604C30.7732 94.5517 30.8919 94.6501 31.0106 94.7486C31.4504 95.1703 31.7156 95.6693 31.8692 96.077C32.0158 96.4846 32.0856 96.8501 32.1344 97.1805C32.2182 97.8341 32.1973 98.3754 32.1624 98.8884C32.1275 99.4015 32.0646 99.8795 31.9809 100.336C31.8273 101.264 31.6179 102.129 31.3945 102.986C30.494 106.374 29.3143 109.523 28.0857 112.651C26.8362 115.778 25.5378 118.843 24.1347 121.9L21.7055 119.433C25.1469 117.36 28.6023 115.371 32.0995 113.438C35.5968 111.505 39.129 109.621 42.7659 107.92C44.5948 107.063 46.4237 106.254 48.3852 105.58C48.8738 105.418 49.3695 105.263 49.893 105.137C50.4235 105.003 50.961 104.891 51.5893 104.849C51.9034 104.828 52.2524 104.828 52.6852 104.912L52.8458 104.947C52.9016 104.968 52.9645 104.982 52.9784 104.989L53.1529 105.046L53.5089 105.165L54.8981 105.608C58.6048 106.761 62.3743 107.766 66.1787 108.56C69.9831 109.34 73.8154 109.98 77.6757 110.444C81.5289 110.879 85.4032 111.182 89.2844 111.28C97.0467 111.505 104.83 111.104 112.523 109.973C116.362 109.417 120.18 108.686 123.964 107.787C127.74 106.859 131.475 105.777 135.154 104.504C142.49 101.932 149.61 98.6073 156.179 94.3901C159.453 92.2604 162.608 89.9409 165.519 87.3333C168.423 84.7186 171.118 81.872 173.428 78.7302C175.732 75.6024 177.651 72.1654 178.999 68.5246C180.297 64.8978 181.03 61.0531 181.03 57.1803Z" fill="white"/>
</svg>
