<svg width="281" height="56" viewBox="0 0 281 56" fill="none" xmlns="http://www.w3.org/2000/svg">
<g clip-path="url(#clip0)">
<path d="M147.52 44.1577C146.675 45.4349 141.121 52.2799 139.543 54.9336C139.096 55.132 138.611 55.2808 138.065 55.38C137.518 55.4792 136.934 55.5536 136.288 55.6032C134.859 55.6032 133.853 55.3056 133.256 54.7228C132.66 54.1276 132.585 53.2719 133.033 52.1435C136.835 46.9229 140.065 41.7768 142.761 36.6802C145.445 31.5837 146.737 27.8636 146.65 25.4951C146.601 24.7139 146.389 24.0567 146.017 23.5359C144.501 21.4154 142.053 23.4987 140.587 24.6395C139.108 25.7927 137.68 27.1692 136.3 28.7316L135.779 28.2852C137.406 26.512 139.245 24.7511 141.295 23.0027C143.345 21.2542 145.271 19.791 147.098 18.6129C147.694 18.2161 148.141 17.9557 148.464 17.8317C151.074 16.8273 152.85 19.8654 153.645 21.8618C154.851 24.8627 154.416 27.3924 153.198 30.3437C152.291 32.5633 150.477 36.023 147.756 40.7476C152.241 34.7954 157.062 29.55 162.219 25.0239C165.25 22.3578 168.406 19.2329 172.357 18.0053C176.122 16.8273 179.613 20.0638 179.179 23.5855C178.781 26.76 176.756 31.2489 173.115 37.0523C170.257 41.7272 168.568 44.6909 168.046 45.9433C167.524 47.1957 167.288 48.2126 167.338 49.0062C167.4 50.0478 168.232 51.7095 169.413 51.8459C170.705 51.9947 172.693 50.147 173.625 49.4154C175.302 48.1134 176.905 46.6501 178.433 45.0257L178.88 45.5465C175.824 48.597 173.475 50.7795 171.848 52.0815C169.487 53.9663 165.847 57.1036 162.566 55.2312C159.473 53.4579 158.988 49.0806 160.305 46.1045C160.951 44.6537 162.89 41.2684 166.145 35.961C168.754 31.6829 170.382 28.496 171.028 26.4004C171.748 24.0443 171.053 21.1178 168.195 22.643C165.027 24.3419 162.293 27.0328 159.746 29.5252C155.335 33.8778 151.26 38.7511 147.52 44.1577Z" fill="white"/>
<path d="M54.918 54.884C54.421 55.0824 53.8991 55.2312 53.3276 55.3304C52.756 55.4296 52.1845 55.504 51.5881 55.5536C50.2089 55.5536 49.2274 55.256 48.631 54.6732C48.0346 54.078 47.9352 53.2223 48.3328 52.0939C52.1845 46.7741 55.4398 41.5908 58.136 36.5191C60.8198 31.4473 62.1119 27.7644 62.025 25.4455C61.9753 24.6643 61.764 24.0071 61.3913 23.4863C61.0185 22.9655 60.4967 22.6183 59.8009 22.4198C58.6703 22.7175 57.3408 23.4491 55.8125 24.6395C54.2843 25.8175 52.8306 27.194 51.4514 28.7688L50.9296 28.248C52.756 26.326 54.7067 24.4907 56.8065 22.7547C58.9063 21.0062 60.8073 19.6422 62.5344 18.6625C62.932 18.3649 63.342 18.1541 63.7893 18.0301C64.2366 17.9061 64.6963 17.8441 65.1933 17.8441C66.324 17.8937 67.3552 18.6873 68.2622 20.2126C69.1692 21.7378 69.6787 23.3375 69.7781 25.0115C69.8278 25.9415 69.629 27.0824 69.1817 28.4092C68.7344 29.7361 68.0262 31.3605 67.0322 33.2826C70.7348 28.4092 73.5055 25.0115 75.3568 23.1019C77.2081 21.1922 78.9227 19.8282 80.5007 19.0469C80.948 18.7989 81.3828 18.6005 81.8301 18.4517C82.2774 18.3029 82.762 18.1789 83.3087 18.0797C85.0358 17.8813 86.7131 17.8689 88.3408 18.0425C89.9684 18.2161 92.3664 18.5509 92.4161 19.0346C92.3664 19.9646 91.5836 21.3038 90.0802 23.0151C88.5768 24.7387 87.4089 25.6439 86.564 25.7431C86.2161 25.7431 85.8558 25.7183 85.4955 25.6687C85.1227 25.6191 84.5512 25.4951 83.756 25.2967C82.5259 25.0487 81.5195 24.8875 80.7616 24.8131C79.9913 24.7387 79.2209 24.7015 78.4257 24.7015C78.1275 24.8007 77.8045 24.9247 77.469 25.0735C77.1211 25.2223 76.7981 25.3959 76.5123 25.5943C75.1332 26.3756 73.667 27.752 72.1139 29.6865C70.5608 31.6333 66.3985 35.651 62.758 41.752C62.1616 42.7812 61.4907 43.9345 60.7203 45.1869C59.9624 46.4393 58.0242 49.6758 54.918 54.884Z" fill="white"/>
<path d="M119.813 34.5349C114.93 41.0823 111.202 44.79 106.568 49.093C103.275 52.1558 100.48 54.2019 98.1935 55.2311C97.2492 55.6527 95.0873 55.9132 94.317 56C92.9875 55.8015 91.7202 55.2311 90.5026 54.3011C89.2973 53.3711 88.5643 52.2302 88.3158 50.9034C88.2164 49.527 89.4092 46.8113 91.9066 42.744C94.3915 38.6891 95.721 36.5562 95.8577 36.3578C98.032 32.7121 99.4733 30.108 100.182 28.5332C100.89 26.9583 101.225 25.7059 101.175 24.7635C101.126 24.131 100.902 23.5854 100.505 23.139C100.107 22.6926 99.5727 22.3826 98.8769 22.1842C97.7462 22.5314 96.4044 23.3002 94.8512 24.5155C93.2981 25.7183 91.8072 27.1071 90.3783 28.682L89.8565 28.1612C91.6829 26.2391 93.6585 24.4039 95.7707 22.6678C97.8953 20.9194 99.7839 19.5553 101.461 18.5757C101.958 18.2781 102.406 18.0673 102.828 17.9433C103.25 17.8193 103.698 17.7573 104.195 17.7573C105.375 17.8069 106.456 18.6005 107.413 20.1629C108.369 21.713 108.879 23.2506 108.929 24.7759C108.929 25.5695 108.568 26.7723 107.86 28.3968C107.139 30.0212 105.474 33.0717 102.865 37.5482C102.617 37.945 101.598 39.6191 99.7963 42.5704C97.9947 45.5217 96.9262 47.5925 96.5783 48.7706C96.5286 49.5146 96.7522 50.1346 97.2492 50.6554C97.7462 51.1762 98.4296 51.5482 99.3242 51.7962C101.2 51.4986 104.22 49.2046 108.382 44.8892C111.016 42.1736 113.6 39.4083 116.023 36.4818C117.39 34.8326 118.707 33.1337 119.974 31.3977C122.695 27.6775 125.652 24.0566 128.001 20.0885C128.249 19.6669 128.473 19.3197 128.672 19.0221C129.318 18.7741 129.976 18.5633 130.672 18.3897C131.368 18.2161 132.026 18.1045 132.672 18.0549C134.002 18.0549 134.946 18.3649 135.518 18.9725C136.089 19.5925 136.151 20.4357 135.704 21.5146C134.673 22.9406 133.381 24.8131 131.865 27.1195C130.337 29.4384 128.858 31.7945 127.429 34.2001C124.969 38.2799 123.217 41.4543 122.173 43.7236C121.142 45.9929 120.595 47.7413 120.546 48.969C120.546 49.5642 120.819 50.1222 121.353 50.6678C121.9 51.2134 122.559 51.5978 123.354 51.8458C124.435 51.449 125.814 50.6058 127.491 49.3038C129.169 48.0017 130.747 46.5633 132.225 44.9884L132.672 45.5093C130.25 47.9769 128.137 49.961 126.311 51.4862C124.484 53.0115 122.733 54.2639 121.055 55.2559C120.807 55.3551 120.459 55.4543 120.024 55.5535C119.577 55.6527 119.167 55.7023 118.769 55.7023C118.173 55.7023 117.614 55.6527 117.067 55.5535C116.52 55.4543 116.16 55.3551 115.961 55.2559C115.116 54.6607 114.42 53.8299 113.849 52.7511C113.277 51.6722 112.954 50.581 112.855 49.5022C112.805 48.4729 113.215 46.9477 114.072 44.9264C114.93 42.9052 116.16 40.5863 119.813 34.5349Z" fill="white"/>
<path d="M231.847 55.4048C231.649 55.5536 231.363 55.6528 231.003 55.7024C230.63 55.752 230.12 55.7768 229.487 55.7768C228.841 55.7768 228.319 55.7396 227.896 55.6652C227.474 55.5908 227.163 55.4792 226.977 55.3304C226.045 54.698 225.262 53.8548 224.641 52.8255C224.02 51.7963 223.697 50.7795 223.647 49.7999C223.597 48.8698 223.92 47.6174 224.604 46.0301C225.287 44.4553 227.163 41.3056 230.22 36.5811C230.717 35.7999 231.363 34.7706 232.183 33.5182C232.991 32.2658 233.575 31.3853 233.922 30.9017C234.904 29.3269 235.625 28.1116 236.072 27.2436C236.519 26.388 236.842 25.6068 237.029 24.9123C237.128 24.2303 236.966 23.5731 236.544 22.9531C236.122 22.3331 235.6 21.9611 234.954 21.8123C233.972 22.1595 232.605 22.9655 230.891 24.2427C229.164 25.52 227.611 26.8716 226.231 28.2976L225.71 27.9256C227.089 26.45 228.952 24.7635 231.288 22.8663C233.624 20.969 235.712 19.4562 237.538 18.3278C238.035 17.9805 238.532 17.7449 239.054 17.6209C239.576 17.4969 240.147 17.4845 240.793 17.5837C241.775 17.8317 242.756 18.675 243.713 20.1258C244.67 21.5766 245.179 22.9407 245.229 24.2179C245.229 24.9123 244.968 25.8052 244.459 26.9088C243.937 28.0124 243.067 29.4509 241.837 31.2241C241.39 31.8689 240.657 32.9106 239.613 34.3614C238.582 35.8123 237.811 36.9283 237.314 37.7219C234.407 42.1488 232.68 44.9761 232.133 46.2162C231.587 47.4562 231.35 48.4606 231.4 49.2418C231.45 49.8371 231.736 50.3703 232.245 50.8663C232.767 51.3623 233.413 51.7219 234.208 51.9699C235.239 51.6227 236.581 50.8167 238.197 49.5394C239.812 48.2622 241.452 46.7618 243.079 45.0381L243.527 45.5589C240.321 48.7582 237.936 51.0027 236.358 52.2799C234.78 53.582 233.276 54.6236 231.847 55.4048ZM246.111 15.0541C245.316 15.0541 244.72 15.0045 244.297 14.9053C243.875 14.8061 243.527 14.6324 243.229 14.3844C242.98 13.504 243.328 12.0408 244.26 9.99472C245.192 7.94866 246.136 6.68382 247.068 6.18781C247.366 6.039 247.888 5.9026 248.621 5.7786C249.366 5.65459 250.05 5.59259 250.696 5.59259C251.429 5.59259 252.174 5.70419 252.92 5.9274C253.653 6.15061 254.15 6.38621 254.399 6.63422C254.399 7.91146 253.69 9.4615 252.286 11.2844C250.882 13.1072 249.665 14.2108 248.621 14.6076C248.372 14.7565 248.037 14.8681 247.627 14.9425C247.217 15.0169 246.695 15.0541 246.111 15.0541Z" fill="white"/>
<path d="M268.165 43.5872L268.612 44.108C266.053 46.5137 263.369 48.783 260.586 50.9034C257.803 53.0239 255.467 54.5491 253.603 55.4792C253.454 55.5784 253.23 55.6528 252.932 55.7024C252.634 55.752 252.286 55.7768 251.901 55.7768C251.205 55.7768 250.659 55.7396 250.236 55.6652C249.814 55.5908 249.503 55.504 249.317 55.4048C248.521 54.8591 247.875 54.0035 247.354 52.8255C246.832 51.6475 246.546 50.457 246.509 49.279C246.409 47.9521 246.683 46.3649 247.329 44.5173C247.962 42.6696 249.031 40.4995 250.509 37.9823C251.889 35.6262 253.715 32.6129 255.989 28.9424C258.25 25.2719 259.493 23.3002 259.691 23.0026H253.554C253.255 22.953 253.094 22.8538 253.069 22.705C253.044 22.5562 253.206 22.4074 253.554 22.2586C255.628 21.3286 257.132 20.6218 258.064 20.1505C258.996 19.6793 259.89 19.2329 260.723 18.7865C262.847 17.6085 265.047 16.294 267.345 14.8432C269.644 13.3924 271.793 11.9539 273.818 10.5279C274.117 10.3295 274.365 10.2799 274.564 10.3791C274.763 10.4783 274.763 10.6519 274.564 10.8999C273.632 12.4251 272.787 13.7892 272.054 14.992C271.321 16.1948 270.65 17.2985 270.054 18.2781C271.632 18.2781 273.185 18.2533 274.713 18.2037C276.241 18.1541 277.943 18.1045 279.82 18.0549C280.168 18.0053 280.404 17.9805 280.528 17.9805C280.652 17.9805 280.739 17.9805 280.789 17.9805C280.888 17.9805 280.963 18.0177 281.012 18.0921C281.062 18.1665 281.062 18.2533 281.012 18.3525C280.963 18.5509 280.814 18.8485 280.565 19.2329C280.317 19.6297 279.919 20.1133 279.385 20.7086C278.739 21.5394 278.155 22.1718 277.608 22.5934C277.061 23.015 276.602 23.2506 276.204 23.3002C274.129 23.201 272.427 23.139 271.097 23.1142C269.768 23.0894 268.414 23.077 267.034 23.077C264.326 27.504 262.301 30.8397 260.971 33.0841C259.642 35.3286 258.436 37.3994 257.343 39.3215C256.063 41.5908 255.194 43.3888 254.759 44.7529C254.311 46.1045 254.113 47.4437 254.162 48.7706C254.212 49.651 254.448 50.4074 254.871 51.0274C255.293 51.6475 255.84 52.0195 256.535 52.1683C257.567 51.8211 259.319 50.7546 261.791 48.9566C264.202 47.1461 266.339 45.3605 268.165 43.5872Z" fill="white"/>
<path d="M223.25 18.9229C222.367 17.5961 220.516 18.5881 219.721 19.4437C218.801 20.4357 217.783 21.3658 216.577 21.9858C215.372 22.6058 213.757 22.9034 211.732 22.9034C210.7 22.9034 209.644 22.7546 208.588 22.457C207.532 22.1594 206.426 21.713 205.296 21.1302C204.314 20.5846 203.171 19.8777 201.891 18.9849C199.717 17.4845 197.89 16.5544 195.281 17.7449C193.181 18.6997 191.454 20.4977 189.839 22.0106C187.565 24.1311 185.254 26.4375 182.881 28.9548L183.478 29.3268C186.683 26.2267 188.634 24.4163 189.317 23.8954C190.013 23.3746 190.597 23.0522 191.094 22.9034C191.591 22.8538 192.15 22.953 192.796 23.201C193.442 23.449 194.498 24.007 195.977 24.8999C197.853 26.0779 199.307 26.8591 200.338 27.2311C201.369 27.6031 202.339 27.7892 203.221 27.7892C204.451 27.7892 205.954 27.4543 207.731 26.7971C209.508 26.1275 211.508 25.1603 213.72 23.883C213.819 23.883 213.881 23.9078 213.906 23.9574C213.931 24.007 213.943 24.0814 213.943 24.1807C212.278 25.4703 210.676 26.8343 209.098 28.2356C206.737 30.1948 204.09 32.4021 201.866 34.2373C198.512 37.0026 194.946 39.5199 191.405 42.0496C189.268 43.5748 187.081 45.0132 184.931 46.5385C182.881 47.9893 181.018 49.6882 178.943 51.0894C178.048 51.697 176.072 52.4783 175.451 53.3463C174.805 54.2267 174.731 54.9087 175.19 55.3799C175.662 55.8512 177.501 55.7644 178.247 55.1195C179.974 53.1479 181.527 51.759 182.906 50.953C184.285 50.147 185.863 49.7378 187.64 49.7378C188.472 49.7378 189.454 49.9114 190.56 50.2586C195.555 51.8086 200.09 54.8591 205.308 55.6776C205.78 55.752 206.24 55.7892 206.675 55.7892C207.072 55.7892 207.445 55.752 207.818 55.6776C208.191 55.6032 208.452 55.5163 208.588 55.4171C212.825 52.069 216.776 48.3613 220.777 44.728C221.112 44.418 221.336 43.6988 220.876 43.6616C218.888 45.4721 216.826 47.1833 214.676 48.7954C214.005 49.3038 213.272 49.8122 212.44 49.8246C211.719 49.837 211.048 49.4774 210.402 49.1302C205.072 46.3153 197.605 42.9548 191.616 45.6209C189.789 46.4269 187.553 47.6297 184.882 49.2046C184.782 49.2046 184.72 49.1798 184.695 49.1302C184.67 49.0806 184.683 49.0062 184.733 48.907C184.969 48.7334 185.23 48.5473 185.503 48.3489C189.529 45.5341 198.76 39.0363 202.96 35.589C207.048 32.2285 212.564 27.6156 215.037 25.5447C215.509 25.1851 215.956 24.8627 216.341 24.5899C218.441 23.139 220.553 21.7378 222.74 20.4481C222.926 20.3365 223.113 20.2249 223.237 20.0637C223.535 19.7041 223.423 19.2577 223.25 18.9229Z" fill="white"/>
<path d="M67.9885 0.70682C67.8394 0.533215 67.6157 0.421612 67.3175 0.372011C66.4726 0.272808 65.2426 0.186005 63.6149 0.111603C61.9873 0.0372011 60.372 0 58.7444 0C55.1909 0 51.6871 0.434012 48.2454 1.28964C44.7913 2.15766 41.1881 3.4969 37.4482 5.31975C32.9629 7.48981 29.0242 9.99469 25.6571 12.8468C22.2775 15.6988 19.5813 18.7741 17.5561 22.0726C17.0094 22.9035 16.1893 24.2799 15.1084 26.1151L15.0587 26.1523C14.2759 27.5536 13.4062 29.0788 12.4743 30.7529C8.77171 37.3003 6.08795 42.0248 4.41059 44.9265C2.73324 47.8282 1.35408 50.1966 0.273125 52.0071C-0.12447 53.0363 -0.0871955 53.8423 0.384948 54.4004C0.857092 54.9708 1.67713 55.2436 2.85749 55.2436C3.10599 55.2436 3.35448 55.2312 3.60298 55.2064C3.85148 55.1816 4.43544 55.1196 5.37973 55.0204C5.47913 54.8716 5.67793 54.5616 5.97612 54.1027C6.27432 53.6315 6.88314 52.7883 7.82742 51.5607C8.47351 50.6802 8.93323 50.023 9.23143 49.6014C9.52962 49.1798 9.97692 48.535 9.97692 48.535C9.97692 48.535 11.2567 51.3747 11.6418 51.9947C12.3998 53.2471 13.1825 54.5988 14.4996 55.318C15.3196 55.7644 16.239 55.9876 17.2703 55.9876C18.5998 55.9876 20.1529 55.6528 21.9296 54.9956C23.7064 54.326 26.3031 53.2347 29.0615 51.7095C32.6647 49.403 35.7833 47.0097 38.4174 44.5545C41.0514 42.0992 43.1139 39.6067 44.5925 37.1019C45.9717 34.6962 46.9284 32.1541 47.4378 29.5004C47.9596 26.8468 47.9224 24.5279 47.326 22.5686C46.9284 21.1922 46.245 20.0266 45.251 19.0593C44.2695 18.1045 41.8963 17.5961 40.8029 17.5465C39.6723 17.7449 38.0695 18.6005 35.9945 20.1258C33.9196 21.651 31.6582 23.5979 29.1857 25.9539C26.2783 28.6572 17.1212 37.0275 15.1084 39.1975C15.3569 38.7015 16.9224 35.9362 21.2338 28.2852C21.6438 27.566 22.029 26.884 22.4142 26.2019C23.52 24.2551 24.4643 22.6058 25.247 21.2666C27.7569 16.8893 30.0554 13.4296 32.1304 10.8999C34.2053 8.37024 36.0691 6.68379 37.7464 5.84057C38.6286 5.34455 39.5729 5.00974 40.5544 4.81134C41.536 4.61293 42.853 4.51373 44.4683 4.51373C45.6486 4.51373 46.9781 4.60053 48.4566 4.77414C49.9352 4.94774 52.1344 5.30735 55.0418 5.84057C57.4522 6.28698 59.1917 6.57219 60.2602 6.68379C61.3163 6.80779 62.2482 6.8698 63.0309 6.8698C63.8634 6.8698 64.9444 6.17538 66.249 4.79894C67.5536 3.4225 68.2121 2.26926 68.2121 1.32684C68.2121 1.07883 68.1376 0.880425 67.9885 0.70682ZM20.6623 36.023C23.9176 32.6501 27.5705 29.4632 30.9749 26.4624C32.3043 25.2843 33.5468 24.3171 34.7148 23.5855C35.8703 22.8415 36.7524 22.457 37.3364 22.4074C38.0819 22.6554 38.6162 22.9903 38.9641 23.3995C39.3119 23.8211 39.5853 24.4659 39.7841 25.3587C40.1817 26.9336 40.1196 29.1656 39.5977 32.0425C39.0759 34.9194 38.1813 37.7591 36.9015 40.574C35.7709 43.0292 34.5781 45.0877 33.348 46.7369C31.4594 49.2666 28.6639 51.0399 25.6819 51.9947C24.5264 52.3667 23.2963 52.6271 22.0787 52.4287C20.5753 52.1931 19.1961 51.4863 18.0034 50.5686C16.326 49.2666 13.7168 47.3074 12.1885 44.7033C13.9032 42.2852 17.407 39.3959 20.6623 36.023Z" fill="white"/>
</g>
<defs>
<clipPath id="clip0">
<rect width="281" height="56" fill="white"/>
</clipPath>
</defs>
</svg>
