<svg width="203" height="114" viewBox="0 0 203 114" fill="none" xmlns="http://www.w3.org/2000/svg">
<path d="M80.3881 35.0677L62.049 81.0886H51.376L32.6558 35.0677H41.677L56.882 73.2769L71.4939 35.0677H80.3881Z" fill="#F4F4F4"/>
<path d="M104.402 74.7202C113.127 74.7202 118.845 68.4369 118.845 58.0779C118.845 47.7614 113.127 41.4357 104.402 41.4357H103.725C94.9998 41.4357 89.2821 47.719 89.2821 58.0779C89.2821 68.3944 94.9998 74.7202 103.725 74.7202H104.402ZM104.063 34.4306C117.405 34.2608 127.188 43.5584 127.061 58.0779C127.188 72.5975 117.405 81.8951 104.063 81.7252C90.6798 81.8951 80.8537 72.5975 81.0232 58.0779C80.8537 43.5584 90.6798 34.2608 104.063 34.4306Z" fill="#F4F4F4"/>
<path d="M133.668 35.0677H141.885V74.0836H169.414V81.0886H133.668V35.0677Z" fill="#F4F4F4"/>
<path d="M101.521 6.49557C75.8973 6.49557 51.8406 11.8873 33.798 21.6944C16.3484 31.1618 6.77657 43.5586 6.77657 56.5922C6.77657 69.6258 16.3908 82.0226 33.798 91.49C51.8406 101.297 75.8973 106.689 101.521 106.689C127.145 106.689 151.202 101.297 169.244 91.49C186.694 82.0226 196.266 69.6258 196.266 56.5922C196.266 43.5586 186.652 31.1618 169.244 21.6944C151.202 11.9298 127.145 6.49557 101.521 6.49557ZM101.521 113.184C74.7538 113.184 49.5112 107.495 30.4521 97.1364C10.8001 86.4803 0 72.0881 0 56.5922C0 41.1386 10.8001 26.7465 30.4521 16.0479C49.4688 5.68893 74.7114 0 101.521 0C128.289 0 153.531 5.68893 172.548 16.0479C192.2 26.704 203 41.0962 203 56.5922C203 72.0457 192.2 86.4379 172.548 97.1364C153.531 107.495 128.289 113.184 101.521 113.184Z" fill="#F4F4F4"/>
</svg>
